<svg aria-hidden="true" style="position: absolute; width: 0; height: 0; overflow: hidden;" version="1.1" xmlns="http://www.w3.org/2000/svg" xmlns:xlink="http://www.w3.org/1999/xlink">
<defs>
<symbol id="icon-V" viewBox="0 0 32 32">
<path  d="M26.347 23.994c0.252-0.281 0.406-0.655 0.406-1.065 0-0.439-0.177-0.837-0.464-1.127l-1.582-1.582c0.895-1.157 1.434-2.628 1.434-4.225 0-1.912-0.773-3.643-2.024-4.898l-6.83-6.831 0.138-0.138c0.438-0.438 0.708-1.042 0.708-1.71 0-1.336-1.083-2.419-2.419-2.419-0.668 0-1.273 0.271-1.71 0.708l-2.804 2.804-3.025-3.025c-0.301-0.301-0.717-0.488-1.177-0.488-0.919 0-1.665 0.745-1.665 1.665 0 0.46 0.186 0.876 0.488 1.177l3.025 3.025-2.979 2.979-3.025-3.025c-0.301-0.301-0.717-0.488-1.177-0.488-0.919 0-1.665 0.745-1.665 1.665 0 0.46 0.186 0.876 0.488 1.177v0l3.025 3.025-2.805 2.805c-0.438 0.438-0.708 1.042-0.708 1.71 0 1.336 1.083 2.419 2.419 2.419 0.668 0 1.273-0.271 1.71-0.708l0.138-0.138 6.831 6.831c1.254 1.253 2.985 2.028 4.897 2.028 1.598 0 3.069-0.541 4.242-1.45l-0.016 0.012 1.581 1.582c0.288 0.289 0.686 0.468 1.126 0.468 0.41 0 0.785-0.156 1.067-0.411l-0.001 0.001 5.652 5.652h2.354v-2.354l-5.654-5.652zM6.576 2.088c-0.108-0.108-0.175-0.258-0.175-0.423 0-0.33 0.268-0.598 0.598-0.598 0.165 0 0.315 0.067 0.423 0.175v0l3.025 3.025-0.846 0.846-3.025-3.025zM1.242 7.421c-0.108-0.108-0.175-0.258-0.175-0.423 0-0.33 0.268-0.598 0.598-0.598 0.165 0 0.315 0.067 0.423 0.175l3.025 3.025-0.846 0.846-3.025-3.025zM3.513 16.534l-0.138 0.138c-0.242 0.231-0.571 0.374-0.934 0.374-0.747 0-1.353-0.606-1.353-1.353 0-0.362 0.143-0.692 0.375-0.934l13.295-13.295c0.242-0.229 0.569-0.37 0.929-0.37 0.747 0 1.353 0.606 1.353 1.353 0 0.36-0.141 0.687-0.37 0.93l0.001-0.001-0.137 0.138-13.021 13.021zM20.149 23.365c-2.293 2.288-6.004 2.288-8.297 0l-6.831-6.831 11.512-11.512 6.831 6.831c2.288 2.293 2.288 6.005 0 8.297l-3.216 3.216zM23.311 25.536c-0.097 0.096-0.23 0.156-0.377 0.156s-0.281-0.060-0.377-0.156v0l-1.535-1.536 2.979-2.979 1.535 1.536c0.096 0.096 0.156 0.23 0.156 0.377s-0.060 0.28-0.156 0.377v0l-2.225 2.225zM30.933 30.933h-0.846l-5.334-5.334 0.846-0.846 5.334 5.334v0.846z"></path>
<path  d="M19.724 19.635l-1.6-8.533c-0.048-0.249-0.265-0.434-0.524-0.434-0.147 0-0.28 0.059-0.376 0.155l-1.562 1.562-0.767-1.915c-0.081-0.198-0.272-0.335-0.495-0.335-0.147 0-0.28 0.060-0.377 0.156v0l-2.667 2.667c-0.151 0.151-0.197 0.377-0.118 0.575l2.133 5.333c0.081 0.198 0.272 0.335 0.495 0.335 0.147 0 0.281-0.060 0.377-0.156l1.756-1.756 2.823 2.823c0.096 0.096 0.229 0.155 0.376 0.155 0.295 0 0.534-0.239 0.534-0.534 0-0.034-0.003-0.068-0.009-0.1l0.001 0.003zM16.378 16.156c-0.097-0.096-0.23-0.156-0.377-0.156s-0.281 0.060-0.377 0.156l-1.562 1.562-1.702-4.256 1.846-1.846 0.766 1.916c0.081 0.198 0.272 0.335 0.495 0.335 0.147 0 0.281-0.060 0.377-0.156l1.418-1.418 1.097 5.845-1.982-1.981z"></path>
</symbol>
<symbol id="icon-bank" viewBox="0 0 32 32">
<path  d="M5.853 22.202c0.334-0.167 0.982-0.49 0.982-1.64 0-0.827-0.502-2.056-2.467-2.056h-3.893v8.013h3.393c1.641 0 2.076-0.279 2.533-0.728 0.422-0.41 0.69-1.015 0.69-1.648 0-0.793-0.256-1.574-1.238-1.94zM2.083 19.893h1.92c0.758 0 1.227 0.2 1.227 0.858 0 0.638-0.523 0.894-1.184 0.894h-1.963v-1.752zM4.134 25.135h-2.051v-2.143h2.131c0.604 0 1.205 0.271 1.205 0.971-0.002 0.813-0.471 1.172-1.285 1.172zM0.476 27.788v0.728h1.24v3.377h0.855v-3.377h1.243v-0.728h-3.338zM28.066 21.787l3.27-3.282h-2.164l-3.058 3.257v-3.257h-1.674v8.010h1.674v-2.71l0.781-0.804 2.476 3.515h2.154l-3.459-4.73zM12.361 18.505h-1.93l-2.854 8.012h1.762l0.557-1.65h2.957l0.514 1.649h1.818l-2.824-8.011zM10.342 23.481l1.027-3.168h0.023l0.992 3.168h-2.042zM19.829 2.805c-0.506-0.608-1.065-1.142-1.68-1.607l-0.025-0.018c-0.302-0.231-0.644-0.451-1.001-0.644l-0.042-0.021c-0.38-0.196-0.769-0.385-1.234-0.515 0.015 0.477 0.084 0.931 0.201 1.366l-0.010-0.042c0.094 0.404 0.221 0.783 0.369 1.147-0.354 0.104-0.784 0.25-1.268 0.438-0.313 0.14-0.656 0.266-1.002 0.453-0.351 0.168-0.707 0.372-1.068 0.6-0.367 0.207-0.709 0.501-1.068 0.755-0.327 0.311-0.686 0.58-0.977 0.933-0.301 0.338-0.595 0.676-0.822 1.060-0.115 0.187-0.248 0.36-0.344 0.551-0.092 0.194-0.18 0.387-0.266 0.575-0.195 0.364-0.284 0.756-0.386 1.113-0.098 0.299-0.168 0.646-0.196 1.005l-0.001 0.015c-0.027 0.319-0.094 0.601-0.078 0.861l0.020 0.662c0.011 0.363 0.014 0.57 0.014 0.57l0.105-0.562 0.121-0.636c0.037-0.245 0.164-0.505 0.252-0.792 0.094-0.287 0.203-0.593 0.383-0.887 0.164-0.299 0.313-0.622 0.555-0.901l0.332-0.438c0.117-0.143 0.267-0.266 0.396-0.4 0.254-0.277 0.564-0.501 0.871-0.723 0.293-0.233 0.65-0.39 0.959-0.581 0.352-0.141 0.662-0.317 1.008-0.419 0.33-0.12 0.655-0.221 0.973-0.293 0.309-0.090 0.62-0.13 0.891-0.188 0.174-0.025 0.334-0.046 0.488-0.065-0.018 0.046-0.037 0.090-0.053 0.137-0.146 0.384-0.273 0.843-0.359 1.317l-0.008 0.050c-0.039 0.243-0.071 0.489-0.096 0.74-0.020 0.255-0.024 0.519-0.006 0.797 0.261-0.1 0.498-0.213 0.723-0.336 0.658-0.372 1.225-0.802 1.728-1.296l-0.001 0.001c0.636-0.62 1.19-1.32 1.648-2.083l0.026-0.047 0.059-0.098c0.118-0.196 0.187-0.433 0.187-0.685 0-0.332-0.12-0.637-0.32-0.872l0.002 0.002zM7.578 30.965c0-0.766-0.184-0.892-0.521-1.040 0.406-0.137 0.635-0.524 0.635-0.979 0-0.354-0.199-1.159-1.291-1.159h-2.076v4.103h0.842v-1.605h0.885c0.635 0 0.67 0.218 0.67 0.776 0 0.422 0.033 0.636 0.090 0.828h0.949v-0.107c-0.183-0.068-0.183-0.218-0.183-0.817zM6.169 29.596h-1.003v-1.1h1.068c0.502 0 0.6 0.318 0.6 0.537-0.001 0.404-0.217 0.563-0.665 0.563zM23.339 28.516v-0.728h-2.92v4.106h0.858v-1.726h1.806v-0.726h-1.806v-0.926h2.062zM24.755 31.165v-1.060h2v-0.726h-2v-0.862h2.179v-0.727h-3.019v4.103h3.115v-0.728h-2.275zM18.691 29.553l-0.998-0.246c-0.172-0.041-0.436-0.11-0.436-0.43 0-0.371 0.391-0.49 0.715-0.49 0.75 0 0.819 0.433 0.842 0.616h0.82c-0.006-0.503-0.342-1.325-1.6-1.325-1.332 0-1.577 0.805-1.577 1.262 0 0.904 0.639 1.055 1.303 1.207l0.439 0.104c0.433 0.105 0.743 0.189 0.743 0.511 0 0.429-0.453 0.529-0.856 0.529-0.75 0-0.865-0.434-0.871-0.663h-0.82c0 0.511 0.255 1.372 1.753 1.372 0.358 0 1.617-0.112 1.617-1.343-0.001-0.737-0.515-0.968-1.074-1.104zM30.982 30.965c0-0.766-0.186-0.892-0.521-1.040 0.404-0.137 0.637-0.524 0.637-0.979 0-0.354-0.201-1.159-1.293-1.159h-2.074v4.103h0.842v-1.605h0.885c0.633 0 0.67 0.218 0.67 0.776 0 0.422 0.033 0.636 0.091 0.828h0.946v-0.107c-0.183-0.068-0.183-0.218-0.183-0.817zM29.576 29.596h-1.004v-1.1h1.066c0.504 0 0.602 0.318 0.602 0.537 0 0.404-0.217 0.563-0.664 0.563zM21.145 18.508v5.578h-0.021l-3.181-5.578h-1.763v8.012h1.562l0.002-5.712h0.021l3.27 5.713h1.672v-8.013h-1.562zM10.474 27.788h-0.991l-1.463 4.103h0.904l0.285-0.847h1.514l0.264 0.847h0.932l-1.445-4.103zM9.439 30.336l0.527-1.622h0.008l0.512 1.622h-1.047zM14.976 27.788l-0.001 2.856h-0.010l-1.631-2.856h-0.902v4.103h0.799v-2.927h0.013l1.674 2.927h0.859v-4.103h-0.801zM21.957 5.66c-0.019-0.362-0.035-0.568-0.035-0.568s-0.029 0.205-0.090 0.564c-0.029 0.177-0.062 0.392-0.101 0.639-0.030 0.246-0.149 0.509-0.229 0.799-0.083 0.29-0.182 0.598-0.354 0.898-0.154 0.304-0.293 0.63-0.527 0.917-0.104 0.147-0.211 0.297-0.317 0.449-0.115 0.145-0.259 0.273-0.388 0.411-0.244 0.283-0.547 0.518-0.848 0.748-0.283 0.242-0.637 0.408-0.941 0.609-0.346 0.151-0.651 0.337-0.994 0.448-0.259 0.111-0.58 0.221-0.91 0.31l-0.054 0.012c-0.305 0.1-0.613 0.149-0.883 0.214-0.054 0.013-0.219 0.041-0.385 0.067l-0.101 0.013c0.014-0.047 0.033-0.091 0.049-0.138 0.144-0.439 0.254-0.897 0.326-1.378 0.031-0.244 0.054-0.491 0.072-0.743 0.013-0.255 0.009-0.52-0.016-0.796-0.28 0.117-0.514 0.236-0.738 0.371l0.025-0.014c-0.215 0.133-0.42 0.271-0.621 0.413-0.392 0.289-0.746 0.6-1.064 0.933-0.613 0.633-1.147 1.349-1.582 2.127l-0.027 0.052-0.057 0.098c-0.105 0.188-0.168 0.412-0.168 0.65 0 0.347 0.131 0.663 0.347 0.902l-0.001-0.001c0.519 0.587 1.094 1.104 1.721 1.552l0.031 0.021c0.328 0.233 0.679 0.445 1.064 0.633 0.383 0.186 0.777 0.364 1.248 0.479-0.025-0.481-0.123-0.903-0.23-1.316-0.12-0.443-0.258-0.821-0.423-1.183l0.019 0.047c0.538-0.178 0.953-0.339 1.36-0.516l-0.106 0.041c0.308-0.148 0.647-0.286 0.988-0.483 0.408-0.214 0.75-0.423 1.077-0.652l-0.032 0.021c0.36-0.218 0.694-0.522 1.047-0.787 0.317-0.319 0.668-0.601 0.949-0.961 0.291-0.347 0.573-0.692 0.789-1.083 0.11-0.191 0.235-0.368 0.327-0.562 0.084-0.197 0.168-0.392 0.248-0.583 0.184-0.37 0.262-0.765 0.354-1.124 0.089-0.303 0.148-0.653 0.166-1.015l0-0.010c0.021-0.319 0.076-0.604 0.054-0.863-0.017-0.255-0.029-0.478-0.039-0.662z"></path>
</symbol>
<symbol id="icon-breathtaking-views" viewBox="0 0 32 32">
<path  d="M32 14.934c0-0.001 0-0.001 0-0.002 0-1.459-0.652-2.767-1.68-3.646l-0.007-0.005c0.389-0.626 0.62-1.385 0.62-2.198 0-0.005 0-0.010-0-0.015v0.001c-0.003-2.18-1.639-3.978-3.75-4.236l-0.021-0.002c0.024-0.168 0.038-0.363 0.038-0.561 0-0.001 0-0.001 0-0.002v0c0-0.003 0-0.006 0-0.010 0-2.351-1.906-4.257-4.257-4.257-1.428 0-2.691 0.703-3.464 1.782l-0.009 0.013c-0.78-1.091-2.043-1.794-3.47-1.794s-2.69 0.703-3.462 1.781l-0.009 0.013c-0.782-1.087-2.044-1.787-3.469-1.787-2.353 0-4.261 1.908-4.261 4.261 0 0.198 0.013 0.392 0.040 0.583l-0.002-0.022c-2.132 0.26-3.768 2.057-3.771 4.237v0c0 0.004-0 0.009-0 0.014 0 0.813 0.231 1.573 0.631 2.216l-0.010-0.018c-2.018 1.72-2.26 4.749-0.54 6.767 0.165 0.194 0.346 0.374 0.539 0.539-0.389 0.625-0.619 1.384-0.619 2.197 0 0.006 0 0.012 0 0.018v-0.001c0.003 2.355 1.911 4.264 4.266 4.267h3.2v5.866h-1.6c-0.288 0.009-0.518 0.244-0.518 0.533s0.23 0.525 0.517 0.533l0.001 0h18.133c0.005 0 0.010 0 0.016 0 0.295 0 0.534-0.239 0.534-0.534s-0.239-0.534-0.534-0.534c-0.006 0-0.011 0-0.016 0l0.001-0h-1.6v-5.867h3.2c2.355-0.003 4.264-1.912 4.267-4.267v-0c0-0.004 0-0.009 0-0.014 0-0.813-0.231-1.573-0.631-2.216l0.010 0.018c1.035-0.885 1.687-2.192 1.687-3.652 0-0.001 0-0.001 0-0.002v0zM5.333 23.995c-1.765-0.002-3.196-1.431-3.2-3.195v-0c0-0.003 0-0.005 0-0.008 0-0.755 0.264-1.448 0.705-1.992l-0.005 0.006c0.073-0.090 0.116-0.206 0.116-0.333 0-0.183-0.092-0.345-0.233-0.441l-0.002-0.001c-1.001-0.68-1.649-1.813-1.649-3.098s0.649-2.418 1.636-3.089l0.013-0.008c0.143-0.097 0.235-0.259 0.235-0.442 0-0.126-0.044-0.242-0.117-0.334l0.001 0.001c-0.436-0.538-0.7-1.231-0.7-1.985 0-0.003 0-0.006 0-0.009v0.001c0.002-1.767 1.433-3.198 3.2-3.2h0l0.138 0.008c0.173 0.008 0.338-0.069 0.442-0.207 0.070-0.089 0.112-0.203 0.112-0.326 0-0.055-0.008-0.108-0.024-0.158l0.001 0.004c-0.083-0.271-0.131-0.583-0.131-0.906 0-1.767 1.433-3.2 3.2-3.2 1.266 0 2.36 0.735 2.879 1.802l0.008 0.019c0 0.006 0 0.010-0.004 0.016-0.059 0.17-0.112 0.376-0.15 0.587l-0.004 0.025c-0.006 0.035-0.011 0.072-0.016 0.107-0.033 0.194-0.052 0.416-0.052 0.644 0 0.192 0.014 0.382 0.040 0.567l-0.002-0.021c-2.132 0.26-3.769 2.058-3.771 4.239v0c0 0.004-0 0.009-0 0.014 0 0.813 0.231 1.573 0.631 2.217l-0.010-0.018c-0.009 0.009-0.017 0.018-0.027 0.027l-2.482-2.483c-0.096-0.092-0.226-0.148-0.369-0.148-0.295 0-0.534 0.239-0.534 0.534 0 0.143 0.056 0.273 0.148 0.369l2.513 2.513c-0.585 0.785-0.936 1.775-0.936 2.846 0 1.459 0.652 2.766 1.68 3.645l0.007 0.006c-0.194 0.31-0.353 0.669-0.46 1.049l-0.007 0.029-1.909-1.91c-0.096-0.092-0.226-0.148-0.369-0.148-0.295 0-0.534 0.239-0.534 0.534 0 0.143 0.056 0.273 0.148 0.369l2.522 2.522c0.005 0.074 0.005 0.149 0.014 0.221 0.005 0.050 0.015 0.098 0.022 0.147 0.014 0.099 0.027 0.197 0.048 0.294 0.012 0.058 0.029 0.113 0.044 0.169 0.022 0.086 0.044 0.171 0.071 0.255 0.019 0.059 0.042 0.116 0.064 0.174 0.029 0.078 0.059 0.156 0.093 0.232 0.026 0.058 0.053 0.114 0.082 0.17 0.073 0.147 0.143 0.269 0.221 0.387l-0.008-0.013c0.085 0.135 0.166 0.25 0.253 0.36l-0.006-0.008c0.094 0.12 0.186 0.225 0.282 0.327l-0.002-0.002c0.054 0.057 0.113 0.112 0.171 0.166 0.030 0.027 0.057 0.059 0.087 0.085h-4.114zM15.466 30.933h-5.867v-5.866h5.867v5.867zM16 6.934c-0.294 0-0.534 0.239-0.534 0.534v3.779l-2.423-2.423c-0.096-0.092-0.226-0.148-0.369-0.148-0.295 0-0.534 0.239-0.534 0.534 0 0.143 0.056 0.273 0.148 0.369l3.177 3.177v7.291l-2.289-2.29c-0.096-0.092-0.226-0.148-0.369-0.148-0.295 0-0.534 0.239-0.534 0.534 0 0.143 0.056 0.273 0.148 0.369l3.043 3.043v2.446h-3.2c-1.767-0.002-3.198-1.433-3.2-3.2v-0c0-0.003 0-0.006 0-0.009 0-0.755 0.264-1.447 0.705-1.991l-0.005 0.006c0.073-0.090 0.117-0.206 0.117-0.333 0-0.183-0.092-0.345-0.233-0.441l-0.002-0.001c-1.001-0.68-1.649-1.813-1.649-3.098s0.649-2.418 1.636-3.089l0.013-0.008c0.143-0.097 0.235-0.259 0.235-0.442 0-0.126-0.044-0.242-0.117-0.334l0.001 0.001c-0.436-0.538-0.7-1.231-0.7-1.985 0-0.003 0-0.006 0-0.009v0.001c0.002-1.767 1.433-3.198 3.2-3.2h0l0.138 0.008c0.172 0.009 0.338-0.068 0.442-0.207 0.070-0.089 0.112-0.203 0.112-0.326 0-0.055-0.008-0.108-0.024-0.158l0.001 0.004c-0.086-0.274-0.136-0.589-0.136-0.916 0-0.209 0.020-0.414 0.059-0.612l-0.003 0.020c0-0.007 0-0.016 0.003-0.023 0.038-0.192 0.095-0.381 0.167-0.564 0.481-1.196 1.63-2.025 2.974-2.027h0c1.344 0.002 2.493 0.831 2.966 2.005l0.008 0.022c0.073 0.184 0.128 0.373 0.167 0.567 0 0.007 0 0.016 0.004 0.023 0.037 0.192 0.055 0.387 0.056 0.583-0 0.329-0.050 0.646-0.142 0.944l0.006-0.023c-0.050 0.165-0.017 0.344 0.089 0.48 0.104 0.138 0.27 0.215 0.442 0.207l0.139-0.008c1.767 0.002 3.198 1.433 3.2 3.2v0c0 0.003 0 0.006 0 0.009 0 0.755-0.264 1.447-0.705 1.991l0.005-0.006c-0.073 0.090-0.116 0.206-0.116 0.333 0 0.183 0.092 0.345 0.233 0.441l0.002 0.001c1.001 0.68 1.649 1.813 1.649 3.098s-0.649 2.417-1.636 3.089l-0.013 0.008c-0.143 0.097-0.235 0.259-0.235 0.442 0 0.126 0.044 0.242 0.117 0.334l-0.001-0.001c0.436 0.538 0.7 1.231 0.7 1.985 0 0.003 0 0.006 0 0.009v-0c-0.002 1.767-1.433 3.198-3.2 3.2h-3.2v-7.282c0.040-0.020 0.077-0.044 0.111-0.074l3.466-3.466c0.092-0.096 0.148-0.226 0.148-0.369 0-0.295-0.239-0.534-0.534-0.534-0.143 0-0.273 0.056-0.369 0.148l-2.822 2.823v-7.779c0-0.294-0.239-0.533-0.534-0.533zM22.4 30.933h-5.867v-5.866h5.867v5.867zM29.141 18.772c0.008 0.012 0.016 0.023 0.025 0.034 0.436 0.538 0.7 1.231 0.7 1.985 0 0.003 0 0.006 0 0.009v-0c-0.002 1.767-1.433 3.198-3.2 3.2h-4.114c0.031-0.026 0.058-0.058 0.087-0.085 0.106-0.097 0.204-0.198 0.296-0.304l0.004-0.005c0.049-0.055 0.099-0.114 0.146-0.175l0.006-0.007c0.081-0.102 0.163-0.217 0.238-0.336l0.009-0.016c0.034-0.053 0.068-0.107 0.099-0.16 0.040-0.070 0.078-0.142 0.113-0.213 0.028-0.056 0.053-0.112 0.082-0.17 0.034-0.076 0.064-0.154 0.093-0.232 0.022-0.058 0.045-0.114 0.064-0.174 0.027-0.083 0.049-0.169 0.071-0.255 0.015-0.056 0.032-0.112 0.044-0.169 0.021-0.097 0.035-0.195 0.048-0.294 0.007-0.049 0.017-0.097 0.022-0.147 0.016-0.138 0.025-0.297 0.025-0.459v-0c0-0.004 0-0.009 0-0.014 0-0.813-0.231-1.573-0.631-2.216l0.010 0.018c0.975-0.837 1.608-2.049 1.674-3.409l0-0.011 1.99-1.989c0.092-0.096 0.148-0.226 0.148-0.369 0-0.295-0.239-0.534-0.534-0.534-0.143 0-0.273 0.056-0.369 0.148l-1.366 1.366c-0.252-1.009-0.797-1.867-1.537-2.502l-0.006-0.005c0.389-0.626 0.62-1.385 0.62-2.199 0-0.006 0-0.012-0-0.018v0.001c-0.003-2.18-1.639-3.978-3.75-4.236l-0.021-0.002c0.023-0.163 0.037-0.351 0.037-0.542 0-0.229-0.019-0.454-0.056-0.672l0.003 0.024c-0.006-0.037-0.011-0.073-0.017-0.107-0.041-0.237-0.094-0.443-0.162-0.642l0.009 0.030c0-0.005 0-0.010-0.004-0.016 0.527-1.086 1.622-1.822 2.888-1.822 1.767 0 3.2 1.433 3.2 3.2 0 0.323-0.048 0.636-0.137 0.93l0.006-0.023c-0.050 0.165-0.017 0.344 0.089 0.48 0.104 0.137 0.27 0.215 0.442 0.206l0.14-0.009c1.767 0.002 3.198 1.433 3.2 3.2v0c0 0.003 0 0.006 0 0.009 0 0.755-0.264 1.447-0.705 1.991l0.005-0.006c-0.073 0.090-0.116 0.206-0.116 0.333 0 0.183 0.093 0.345 0.233 0.441l0.002 0.001c1.001 0.68 1.649 1.813 1.649 3.098s-0.649 2.418-1.636 3.089l-0.013 0.008c-0.143 0.097-0.235 0.259-0.235 0.442 0 0.111 0.034 0.215 0.092 0.3l-0.001-0.002z"></path>
</symbol>
<symbol id="icon-coffee-machine" viewBox="0 0 28 32">
<path  d="M27.2 0h-21.333c-0.295 0-0.534 0.239-0.534 0.533v5.333c0.002 1.472 1.194 2.665 2.666 2.667h2.134v1.6h-0.534c0-0 0-0.001 0-0.001 0-0.283-0.22-0.514-0.499-0.532l-0.002-0-8.534-0.534c-0.010-0.001-0.021-0.001-0.033-0.001-0.295 0-0.533 0.239-0.533 0.534 0 0 0 0.001 0 0.001v-0 2.133c0 0.294 0.239 0.533 0.533 0.533h0.033l8.534-0.533c0.28-0.018 0.5-0.25 0.5-0.532 0-0 0-0.001 0-0.001v0h0.534v1.066c0 0.295 0.239 0.534 0.534 0.534h1.066v1.6c0 0.294 0.239 0.534 0.534 0.534h0.533v0.533c0 0.295 0.239 0.533 0.534 0.533s0.534-0.239 0.534-0.534v0-0.533h0.533c0.295 0 0.534-0.239 0.534-0.534v-1.6h1.066c0.295 0 0.534-0.239 0.534-0.534v-3.733h2.666v14.933h-5.333c1.472-0.002 2.665-1.195 2.666-2.666v-3.2c0-0.294-0.239-0.534-0.534-0.534h-5.333c-0.295 0-0.534 0.239-0.534 0.534v0.534h-0.534c-0.288 0.009-0.518 0.244-0.518 0.533s0.23 0.525 0.517 0.533l0.001 0h0.534v1.6c0.002 1.472 1.195 2.665 2.666 2.666h-4.266c-1.472 0.002-2.665 1.195-2.667 2.667v5.333c0 0.295 0.239 0.534 0.533 0.534h20.8c0.295 0 0.534-0.239 0.534-0.534v-30.933c0-0.295-0.239-0.533-0.534-0.533zM8.534 10.699l-7.466 0.467v-0.998l7.466 0.467v0.065zM11.2 20.8v-2.666h4.267v2.666c0 0.884-0.716 1.6-1.6 1.6v0h-1.067c-0.884 0-1.6-0.716-1.6-1.6v0zM19.2 30.933h-12.267v-4.8c0-0.884 0.716-1.6 1.6-1.6v0h10.666v6.4zM13.867 13.867h-1.067v-1.066h1.067v1.066zM15.467 11.733h-4.267v-3.2h4.267v3.2zM26.667 30.933h-6.4v-22.933c0-0.294-0.239-0.534-0.534-0.534h-11.733c-0.884 0-1.6-0.716-1.6-1.6v0-4.8h20.267v29.867z"></path>
<path  d="M22.933 6.934c1.473 0 2.666-1.194 2.666-2.667s-1.194-2.667-2.666-2.667c-1.473 0-2.666 1.194-2.666 2.666v0c0.002 1.472 1.194 2.665 2.666 2.667h0zM22.933 3.733h-1.502c0.226-0.627 0.816-1.067 1.509-1.067 0.884 0 1.6 0.716 1.6 1.6s-0.716 1.6-1.6 1.6c-0.692 0-1.282-0.44-1.505-1.056l-0.004-0.011h1.502c0.288-0.009 0.518-0.244 0.518-0.533s-0.23-0.525-0.517-0.533l-0.001-0zM21.867 11.733c-0.295 0-0.534 0.239-0.534 0.533v1.067c0.009 0.288 0.244 0.518 0.533 0.518s0.525-0.23 0.533-0.517l0-0.001v-1.067c0-0.294-0.239-0.533-0.533-0.533zM21.867 14.934c-0.295 0-0.534 0.239-0.534 0.533v1.067c0.009 0.288 0.244 0.518 0.533 0.518s0.525-0.23 0.533-0.517l0-0.001v-1.067c0-0.294-0.239-0.533-0.533-0.533zM21.867 18.134c-0.295 0-0.534 0.239-0.534 0.533v1.067c0.009 0.288 0.244 0.518 0.533 0.518s0.525-0.23 0.533-0.517l0-0.001v-1.067c0-0.294-0.239-0.533-0.533-0.533z"></path>
</symbol>
<symbol id="icon-denmark" viewBox="0 0 32 32">
<path fill="#d80027" style="fill: var(--color3, #d80027)" d="M32 5.334h-32v21.332h32v-21.332z"></path>
<path fill="#f0f0f0" style="fill: var(--color4, #f0f0f0)" d="M12 5.334h-4v8.666h-8v4.001h8v8.667h4v-8.667h20v-4h-20v-8.668z"></path>
</symbol>
<symbol id="icon-electric-tea" viewBox="0 0 32 32">
<path  d="M30.62 16.817l-1.412-4.344c-0.753-2.27-2.021-4.197-3.672-5.716l-0.010-0.009c-1.642-1.508-3.677-2.615-5.932-3.152l-0.091-0.018-3.1-0.717-8.603-1.872c-0.030-0.007-0.065-0.011-0.1-0.011-0.259 0-0.47 0.21-0.47 0.47 0 0.224 0.157 0.411 0.366 0.458l0.003 0.001 8.61 1.873c1.96 0.432 3.409 2.057 3.609 4.048 0.243 2.434 0.771 5.141 1.568 8.044 1.060 3.863 1.008 7.092 0.779 9.121-0.181 1.595-0.497 2.718-0.66 3.221h-6.27c-0.259 0-0.47 0.21-0.47 0.47s0.21 0.47 0.47 0.47v0h6.337l0.994 1.666c0.041 0.070 0.019 0.13 0.002 0.16-0.027 0.048-0.077 0.081-0.135 0.081-0.001 0-0.002 0-0.004-0h-19.958c-0.001 0-0.002 0-0.003 0-0.058 0-0.109-0.032-0.135-0.080l-0-0.001c-0.014-0.022-0.022-0.050-0.022-0.078 0-0.030 0.009-0.058 0.024-0.082l-0 0.001 0.994-1.666h10.028c0.259 0 0.47-0.21 0.47-0.47s-0.21-0.47-0.47-0.47v0h-9.947c-0.757-2.505-1.046-4.735-0.905-6.988 0.132-2.098 0.618-3.957 1.133-5.925 0.641-2.451 1.304-4.986 1.37-8.26 0.037-1.812-1.067-4.174-2-5.835-0.064-0.158 0.021-0.27 0.191-0.256l2.566 0.559c0.030 0.007 0.064 0.011 0.1 0.011 0.259 0 0.47-0.21 0.47-0.47 0-0.224-0.157-0.411-0.366-0.458l-0.003-0.001-2.566-0.559c-0.903-0.232-1.696 0.837-1.21 1.633 0.717 1.277 1.914 3.672 1.88 5.357-0.064 3.163-0.713 5.643-1.34 8.041-1.027 3.927-1.998 7.639-0.177 13.56l-1.023 1.716c-0.099 0.16-0.157 0.355-0.157 0.563 0 0.2 0.054 0.387 0.148 0.548l-0.003-0.005c0.19 0.334 0.543 0.556 0.948 0.556 0.002 0 0.005 0 0.007-0h19.958c0.4 0 0.757-0.208 0.954-0.556 0.091-0.156 0.145-0.343 0.145-0.543 0-0.208-0.058-0.402-0.16-0.567l0.003 0.005-1.017-1.705c0.162-0.476 0.529-1.692 0.737-3.494 0.244-2.119 0.304-5.49-0.801-9.516-0.707-2.577-1.198-4.992-1.461-7.191 2.027 0.721 3.604 2.269 4.349 4.227l0.016 0.049c0.208 0.576 1.1 0.238 0.88-0.328-0.915-2.409-2.874-4.239-5.309-4.956l-0.057-0.014c-0.185-1.141-0.696-2.139-1.433-2.923l0.003 0.003 0.013 0.003c2.181 0.516 4.072 1.546 5.608 2.956l-0.009-0.008c1.544 1.42 2.723 3.211 3.398 5.234l0.025 0.088 1.413 4.344c0.088 0.273 0.043 0.562-0.126 0.794s-0.43 0.365-0.717 0.365c-0.378-0.001-0.7-0.238-0.828-0.57l-0.002-0.006-1.399-3.756c-0.073-0.171-0.239-0.289-0.434-0.289-0.26 0-0.47 0.21-0.47 0.47 0 0.053 0.009 0.104 0.025 0.151l-0.001-0.003 1.399 3.755c0.268 0.698 0.932 1.185 1.71 1.188h0c0.591 0 1.129-0.274 1.477-0.752s0.442-1.074 0.259-1.637z"></path>
<path  d="M14.867 23.265c1.137-0.001 2.058-0.922 2.059-2.059v-10.478c-0.002-1.136-0.922-2.057-2.059-2.059h-0c-1.136 0.002-2.057 0.923-2.059 2.059v10.478c0.001 1.136 0.922 2.057 2.058 2.059h0zM14.867 9.607c0.619 0 1.121 0.503 1.121 1.121v10.478c0 0.618-0.503 1.121-1.121 1.121s-1.121-0.502-1.121-1.121v-0.496h0.773c0.259 0 0.469-0.21 0.469-0.469s-0.21-0.469-0.469-0.469h-0.773v-1.706h0.773c0.259 0 0.469-0.21 0.469-0.469s-0.21-0.469-0.469-0.469h-0.773v-1.706h0.773c0.259 0 0.469-0.21 0.469-0.469s-0.21-0.469-0.469-0.469h-0.773v-1.705h0.773c0.259 0 0.469-0.21 0.469-0.469s-0.21-0.469-0.469-0.469h-0.773v-1.116c0-0.619 0.503-1.121 1.121-1.121z"></path>
</symbol>
<symbol id="icon-fasebook" viewBox="0 0 15 32">
<path  d="M13.649 15.97h-4.216v16.030h-6.392v-16.030h-3.040v-5.635h3.040v-3.645c0-2.607 1.193-6.69 6.447-6.69l4.734 0.020v5.47h-3.433c-0.564 0-1.356 0.29-1.356 1.534v3.316h4.777l-0.559 5.629z"></path>
</symbol>
<symbol id="icon-floor-heating" viewBox="0 0 32 32">
<path  d="M14 32c-4.044 0-7.333-3.291-7.333-7.334 0-2.178 0.991-4.268 2.667-5.656v-14.344c0-2.573 2.094-4.667 4.667-4.667s4.667 2.094 4.667 4.667v14.344c1.676 1.388 2.666 3.477 2.666 5.656 0 4.043-3.289 7.334-7.334 7.334zM14 1.333c-1.837 0-3.333 1.496-3.333 3.333v14.667c0 0.209-0.099 0.407-0.265 0.532-1.504 1.132-2.402 2.927-2.402 4.801 0 3.308 2.693 6 6 6s6-2.692 6-6c0-1.874-0.897-3.669-2.401-4.801-0.162-0.123-0.265-0.315-0.265-0.532v0-14.667c0-1.837-1.496-3.333-3.334-3.333z"></path>
<path  d="M14 28c-1.837 0-3.333-1.495-3.333-3.334s1.496-3.333 3.333-3.333c1.838 0 3.334 1.495 3.334 3.333s-1.496 3.334-3.334 3.334zM14 22.666c-1.104 0.001-1.999 0.896-2 2v0c0.001 1.104 0.896 1.999 2 2h0c1.104-0.001 1.999-0.896 2-2v-0c-0.001-1.104-0.896-1.999-2-2h-0z"></path>
<path  d="M14 22.666c-0.368-0-0.666-0.299-0.666-0.666v-14.667c0.014-0.358 0.307-0.642 0.666-0.642s0.653 0.285 0.666 0.641l0 0.001v14.666c0 0.368-0.299 0.666-0.666 0.666zM24.666 5.333h-2.666c-0.361-0.010-0.649-0.305-0.649-0.667s0.289-0.657 0.649-0.667l0.001-0h2.666c0.361 0.010 0.649 0.305 0.649 0.667s-0.289 0.657-0.649 0.667l-0.001 0zM24.666 10.666h-2.666c-0.358-0.014-0.642-0.307-0.642-0.666s0.285-0.653 0.641-0.666l0.001-0h2.666c0.358 0.014 0.642 0.307 0.642 0.666s-0.285 0.653-0.641 0.666l-0.001 0zM24.666 16h-2.666c-0.361-0.010-0.649-0.305-0.649-0.667s0.289-0.657 0.649-0.667l0.001-0h2.666c0.361 0.010 0.649 0.305 0.649 0.667s-0.289 0.657-0.649 0.667l-0.001 0z"></path>
</symbol>
<symbol id="icon-flushing-toilets" viewBox="0 0 32 32">
<path  d="M22.933 14.934h-0.534v-1.067h0.534c0.884 0 1.6-0.716 1.6-1.6v0-9.165c0.626-0.225 1.065-0.814 1.065-1.505 0-0.882-0.715-1.596-1.596-1.596-0.001 0-0.002 0-0.002 0h-16c-0.001 0-0.001 0-0.002 0-0.882 0-1.596 0.715-1.596 1.596 0 0.691 0.439 1.28 1.054 1.502l0.011 0.003v9.165c0 0.884 0.716 1.6 1.6 1.6v0h0.533v1.067h-0.533c-1.472 0.002-2.665 1.194-2.667 2.666v0c0 0.294 0.239 0.534 0.534 0.534-0 0.008-0 0.017-0 0.026 0 3.645 2.164 6.785 5.277 8.205l0.056 0.023v5.079c0 0.295 0.239 0.533 0.533 0.533h6.4c0.295 0 0.534-0.239 0.534-0.534v-5.079c3.17-1.444 5.334-4.584 5.334-8.23 0-0.009 0-0.017-0-0.026v0.001c0.294 0 0.533-0.239 0.533-0.534-0.002-1.472-1.195-2.665-2.666-2.666h-0zM7.467 1.6c0-0.294 0.239-0.534 0.533-0.534h16c0.295 0 0.534 0.239 0.534 0.534s-0.239 0.534-0.534 0.534h-16c-0.294-0-0.533-0.239-0.533-0.534v0zM9.067 12.8c-0.295 0-0.534-0.239-0.534-0.534v0-9.066h14.934v9.066c0 0.295-0.239 0.534-0.534 0.534h-13.867zM21.334 13.867v1.067h-10.666v-1.067h10.666zM13.334 30.933v-4.133l0.049 0.014c0.053 0.016 0.107 0.028 0.16 0.043 0.235 0.072 0.532 0.141 0.834 0.193l0.045 0.006c0.165 0.029 0.331 0.053 0.498 0.072 0.101 0.012 0.201 0.025 0.304 0.033 0.217 0.018 0.435 0.029 0.653 0.031 0.040 0 0.080 0.006 0.12 0.006s0.081-0.006 0.121-0.006c0.235-0.003 0.462-0.014 0.687-0.033l-0.034 0.002c0.102-0.008 0.204-0.022 0.306-0.033 0.165-0.020 0.329-0.043 0.493-0.072 0.097-0.017 0.195-0.034 0.293-0.053 0.194-0.040 0.385-0.089 0.575-0.142 0.059-0.017 0.119-0.030 0.178-0.048l0.048-0.013 0.003 4.131h-5.334zM18.997 25.549c-0.888 0.368-1.92 0.582-3.002 0.582-0.54 0-1.067-0.053-1.577-0.155l0.051 0.009c-0.56-0.109-1.052-0.26-1.521-0.456l0.051 0.019c-2.955-1.207-5-4.059-5-7.389 0-0.009 0-0.018 0-0.027v0.001h16c0 0.008 0 0.016 0 0.025 0 3.331-2.046 6.184-4.949 7.372l-0.053 0.019zM7.558 17.067c0.227-0.626 0.816-1.066 1.508-1.067h13.867c0.692 0.001 1.281 0.44 1.505 1.055l0.004 0.011h-16.884z"></path>
<path  d="M13.867 4.8h-1.698c-0.226-0.627-0.816-1.067-1.509-1.067-0.884 0-1.6 0.716-1.6 1.6s0.716 1.6 1.6 1.6c0.693 0 1.282-0.44 1.505-1.056l0.004-0.011h1.698c0.288-0.009 0.518-0.244 0.518-0.533s-0.23-0.525-0.517-0.533l-0.001-0zM10.667 5.867c-0.005 0-0.010 0-0.016 0-0.295 0-0.534-0.239-0.534-0.534s0.239-0.534 0.534-0.534c0.005 0 0.011 0 0.016 0l-0.001-0c0.288 0.009 0.518 0.244 0.518 0.533s-0.23 0.525-0.517 0.533l-0.001 0z"></path>
</symbol>
<symbol id="icon-germany" viewBox="0 0 32 32">
<path fill="#d80027" style="fill: var(--color3, #d80027)" d="M32 5.334h-32v21.331h32v-21.332z"></path>
<path fill="#000" style="fill: var(--color5, #000)" d="M32 5.334h-32v7.11h32v-7.11z"></path>
<path fill="#ffda44" style="fill: var(--color6, #ffda44)" d="M32 19.555h-32v7.112h32v-7.112z"></path>
</symbol>
<symbol id="icon-instagram" viewBox="0 0 32 32">
<path  d="M16.006 7.784c-4.535 0-8.211 3.676-8.211 8.211s3.676 8.211 8.211 8.211v0c4.535 0 8.211-3.676 8.211-8.211s-3.676-8.211-8.211-8.211v0zM16.006 21.324c-0 0-0.001 0-0.002 0-2.943 0-5.329-2.386-5.329-5.329s2.386-5.329 5.329-5.329c2.943 0 5.329 2.386 5.329 5.329v0c0 0 0 0.001 0 0.002 0 2.942-2.385 5.327-5.327 5.327-0.001 0-0.002 0-0.003 0h0z"></path>
<path  d="M22.598 0.101c-2.944-0.137-10.237-0.13-13.184 0-2.589 0.122-4.873 0.747-6.714 2.589-3.078 3.078-2.683 7.223-2.683 13.304 0 6.225-0.347 10.275 2.683 13.306 3.089 3.089 7.296 2.683 13.306 2.683 6.165 0 8.293 0.005 10.473-0.838 2.964-1.152 5.201-3.8 5.42-8.559 0.137-2.946 0.13-10.237 0-13.184-0.265-5.617-3.279-9.024-9.301-9.301zM27.258 27.264c-2.018 2.018-4.815 1.838-11.291 1.838-6.667 0-9.341 0.099-11.291-1.859-2.246-2.234-1.839-5.826-1.839-11.27 0-7.366-0.756-12.672 6.638-13.050 1.699-0.061 2.199-0.081 6.475-0.081l0.061 0.041c7.104 0 12.678-0.745 13.013 6.647 0.076 1.687 0.094 2.194 0.094 6.464-0.002 6.589 0.122 9.278-1.859 11.27z"></path>
<path  d="M24.541 9.379c0.016 0.001 0.035 0.001 0.054 0.001 1.060 0 1.92-0.86 1.92-1.92s-0.86-1.92-1.92-1.92c-0.019 0-0.038 0-0.057 0.001l0.003-0c-1.037 0.030-1.866 0.878-1.866 1.919s0.829 1.889 1.863 1.919l0.003 0z"></path>
</symbol>
<symbol id="icon-kitchenette" viewBox="0 0 32 32">
<path  d="M31.467 6.934h-11.733c-0.294 0-0.534 0.239-0.534 0.533v12.8h-2.666v-0.533h0.534c0.295 0 0.534-0.239 0.534-0.534s-0.239-0.534-0.534-0.534v0h-5.334c-0.295 0-0.534 0.239-0.534 0.534s0.239 0.534 0.534 0.534v0h0.534v0.533h-5.333v-0.533h0.534c0.295 0 0.533-0.239 0.533-0.534s-0.239-0.534-0.534-0.534v0h-5.333c-0.295 0-0.534 0.239-0.534 0.534s0.239 0.534 0.534 0.534v0h0.534v0.533h-2.134c-0.294 0-0.533 0.239-0.533 0.534v10.666c0 0.295 0.239 0.534 0.533 0.534h30.933c0.294 0 0.533-0.239 0.533-0.534v-24c0-0.294-0.239-0.533-0.533-0.533zM13.334 19.733h2.133v0.533h-2.133v-0.533zM3.733 19.733h2.134v0.533h-2.134v-0.533zM8.534 30.933h-7.466v-6.4h7.466v6.4zM8.534 23.466h-7.466v-2.133h7.466v2.133zM19.2 30.933h-9.6v-9.6h9.6v9.6zM30.933 30.933h-10.666v-14.4h10.666v14.4zM30.933 15.466h-10.666v-7.466h10.666v7.466z"></path>
<path  d="M11.2 29.866h6.4c0.295 0 0.534-0.239 0.534-0.533v-6.4c0-0.295-0.239-0.534-0.534-0.534h-6.4c-0.294 0-0.533 0.239-0.533 0.534v6.4c0 0.294 0.239 0.533 0.533 0.533zM11.733 23.466h5.334v5.334h-5.334v-5.334zM21.334 14.934c0.294 0 0.534-0.239 0.534-0.534v-2.133c0-0.295-0.239-0.534-0.534-0.534s-0.534 0.239-0.534 0.534v0 2.133c0 0.294 0.239 0.534 0.534 0.534zM21.334 20.267c0.294 0 0.534-0.239 0.534-0.533v-2.134c0-0.295-0.239-0.534-0.534-0.534s-0.534 0.239-0.534 0.534v0 2.134c0 0.294 0.239 0.533 0.534 0.533zM1.257 9.476c0.096 0.080 0.218 0.124 0.343 0.124h16c0 0 0.001 0 0.001 0 0.295 0 0.534-0.239 0.534-0.534 0-0.13-0.047-0.25-0.125-0.343l0.001 0.001-5.334-6.4c-0.099-0.117-0.245-0.191-0.409-0.191-0 0-0.001 0-0.001 0h-0.533v-1.6c0-0.295-0.239-0.533-0.534-0.533h-3.2c-0.294 0-0.533 0.239-0.533 0.533v1.6h-0.534c-0.158 0-0.309 0.070-0.41 0.191l-5.333 6.4c-0.077 0.092-0.124 0.211-0.124 0.342 0 0.164 0.074 0.311 0.191 0.409l0.001 0.001zM8.534 1.067h2.133v1.067h-2.133v-1.067zM7.184 3.2h4.833l4.445 5.333h-13.723l4.445-5.333z"></path>
</symbol>
<symbol id="icon-logo" viewBox="0 0 34 32">
<path d="M2.050 29.018v-0.398h-2.050v0.398h0.803v2.521h0.443v-2.521h0.803zM4.787 31.539v-2.919h-0.443v1.246h-1.185v-1.246h-0.443v2.919h0.443v-1.275h1.185v1.275h0.443zM7.581 31.539v-0.398h-1.423v-0.878h1.214v-0.394h-1.214v-0.853h1.423v-0.398h-1.866v2.919h1.866zM11.508 30.407v-0.447h-1.066v0.377h0.623v0.164c0 0.096-0.011 0.18-0.033 0.254-0.053 0.162-0.17 0.289-0.32 0.355l-0.004 0.001c-0.082 0.035-0.171 0.053-0.267 0.053-0.002 0-0.004 0-0.006 0-0.085 0-0.165-0.017-0.239-0.047l0.004 0.002c-0.12-0.053-0.216-0.141-0.278-0.251l-0.002-0.003c-0.022-0.048-0.041-0.105-0.053-0.163l-0.001-0.005c-0.011-0.071-0.020-0.157-0.024-0.244l-0-0.006c-0.005-0.101-0.008-0.219-0.008-0.337 0-0.011 0-0.022 0-0.033v0.002c0-0.147 0.003-0.269 0.008-0.365 0.005-0.098 0.014-0.18 0.024-0.246 0.014-0.068 0.031-0.125 0.053-0.168 0.025-0.047 0.055-0.089 0.090-0.127 0.107-0.111 0.256-0.18 0.422-0.18 0.003 0 0.006 0 0.009 0h-0c0.164 0 0.298 0.045 0.402 0.136 0.103 0.087 0.175 0.211 0.213 0.373h0.447c-0.023-0.132-0.063-0.251-0.118-0.36l0.003 0.007c-0.112-0.221-0.299-0.391-0.527-0.477l-0.007-0.002c-0.117-0.047-0.252-0.074-0.394-0.074-0.007 0-0.014 0-0.021 0l0.001-0c-0.155 0-0.298 0.027-0.426 0.082-0.126 0.052-0.239 0.128-0.34 0.23-0.071 0.071-0.126 0.146-0.164 0.225-0.036 0.074-0.066 0.16-0.085 0.251l-0.001 0.007c-0.016 0.093-0.027 0.2-0.029 0.31l-0 0.002c-0.003 0.113-0.005 0.246-0.005 0.379s0.002 0.266 0.005 0.399l-0-0.020c0.003 0.113 0.012 0.215 0.029 0.308 0.019 0.093 0.047 0.179 0.086 0.258s0.093 0.155 0.164 0.226c0.101 0.101 0.216 0.179 0.344 0.234 0.129 0.052 0.27 0.078 0.422 0.078 0.156 0 0.301-0.026 0.435-0.078 0.145-0.059 0.268-0.146 0.368-0.254l0.001-0.001c0.090-0.096 0.159-0.213 0.2-0.342l0.002-0.006c0.041-0.128 0.062-0.287 0.062-0.475zM14.175 31.539v-0.398h-1.406v-2.522h-0.443v2.919h1.849zM16.992 31.539l-1.070-2.919h-0.357l-1.070 2.919h0.471l0.201-0.586h1.152l0.201 0.587h0.472zM16.197 30.576h-0.898l0.455-1.296 0.443 1.296zM19.395 30.707c0-0.126-0.020-0.239-0.062-0.34-0.039-0.102-0.099-0.189-0.175-0.258l-0.001-0.001c-0.062-0.054-0.134-0.098-0.213-0.129l-0.005-0.002c-0.095-0.039-0.205-0.069-0.32-0.085l-0.007-0.001-0.332-0.049c-0.142-0.022-0.252-0.067-0.328-0.135-0.036-0.033-0.065-0.072-0.085-0.117l-0.001-0.002c-0.015-0.044-0.024-0.094-0.024-0.146 0-0.002 0-0.004 0-0.006v0c0-0.131 0.045-0.239 0.135-0.324 0.093-0.087 0.225-0.131 0.398-0.131 0.123 0 0.237 0.016 0.34 0.049 0.107 0.030 0.205 0.089 0.296 0.177l0.283-0.279c-0.112-0.108-0.246-0.194-0.394-0.251l-0.008-0.003c-0.141-0.050-0.304-0.078-0.473-0.078-0.011 0-0.022 0-0.032 0l0.002-0c-0.153 0-0.29 0.020-0.41 0.062s-0.223 0.099-0.307 0.176c-0.082 0.077-0.146 0.168-0.192 0.275-0.044 0.104-0.066 0.218-0.066 0.344 0 0.238 0.071 0.424 0.213 0.558 0.131 0.123 0.316 0.201 0.554 0.234l0.344 0.049c0.087 0.014 0.153 0.029 0.197 0.045 0.048 0.019 0.089 0.045 0.123 0.078l-0-0c0.076 0.068 0.114 0.17 0.114 0.303 0 0.142-0.053 0.253-0.16 0.332-0.104 0.077-0.251 0.115-0.443 0.115-0.15 0-0.286-0.019-0.406-0.057-0.134-0.049-0.248-0.125-0.34-0.221l-0-0-0.295 0.291c0.14 0.142 0.291 0.242 0.455 0.3s0.357 0.086 0.578 0.086c0.153 0 0.294-0.019 0.422-0.057 0.127-0.037 0.238-0.094 0.334-0.17l-0.002 0.002c0.181-0.143 0.296-0.363 0.296-0.609 0-0.008-0-0.016-0-0.023l0 0.001zM21.937 30.707c0-0.126-0.020-0.239-0.062-0.34-0.039-0.102-0.099-0.189-0.176-0.258l-0.001-0.001c-0.062-0.053-0.134-0.098-0.212-0.129l-0.005-0.002c-0.095-0.039-0.205-0.069-0.32-0.085l-0.007-0.001-0.332-0.049c-0.142-0.022-0.252-0.067-0.328-0.135-0.036-0.033-0.065-0.072-0.085-0.117l-0.001-0.002c-0.016-0.044-0.025-0.095-0.025-0.148 0-0.001 0-0.003 0-0.004v0c0-0.131 0.045-0.239 0.135-0.324 0.093-0.087 0.225-0.131 0.398-0.131 0.123 0 0.237 0.016 0.34 0.049 0.107 0.030 0.205 0.089 0.295 0.177l0.283-0.279c-0.112-0.108-0.245-0.194-0.393-0.251l-0.008-0.003c-0.141-0.050-0.304-0.078-0.473-0.078-0.011 0-0.022 0-0.032 0l0.002-0c-0.153 0-0.29 0.020-0.41 0.062s-0.223 0.099-0.307 0.176c-0.082 0.077-0.146 0.168-0.193 0.275-0.044 0.104-0.065 0.218-0.065 0.344 0 0.238 0.071 0.424 0.213 0.558 0.131 0.123 0.315 0.201 0.553 0.234l0.344 0.049c0.088 0.014 0.153 0.029 0.197 0.045 0.048 0.019 0.089 0.045 0.123 0.078l-0-0c0.077 0.068 0.115 0.17 0.115 0.303 0 0.142-0.053 0.253-0.16 0.332-0.104 0.077-0.252 0.115-0.443 0.115-0.15 0-0.286-0.019-0.406-0.057-0.134-0.049-0.248-0.125-0.34-0.221l-0-0-0.295 0.291c0.139 0.142 0.291 0.242 0.455 0.3s0.356 0.086 0.578 0.086c0.153 0 0.294-0.019 0.422-0.057s0.239-0.095 0.332-0.168c0.181-0.143 0.296-0.362 0.296-0.609 0-0.008-0-0.016-0-0.024l0 0.001zM25.915 31.539v-2.919h-0.443v1.246h-1.185v-1.246h-0.443v2.919h0.443v-1.275h1.185v1.275h0.443zM28.893 30.555v-1.936h-0.443v1.915c0 0.197-0.056 0.351-0.168 0.463-0.109 0.112-0.256 0.168-0.439 0.168s-0.33-0.056-0.439-0.168c-0.109-0.111-0.164-0.267-0.164-0.463v-1.915h-0.443v1.936c0 0.15 0.026 0.288 0.078 0.414 0.055 0.123 0.129 0.228 0.222 0.316s0.204 0.156 0.332 0.205c0.128 0.049 0.267 0.074 0.414 0.074s0.286-0.024 0.414-0.074c0.128-0.049 0.239-0.117 0.332-0.205 0.096-0.087 0.17-0.192 0.222-0.315 0.055-0.126 0.082-0.264 0.082-0.415zM31.566 29.018v-0.398h-2.050v0.398h0.803v2.521h0.443v-2.521h0.803zM34.057 30.707c0-0.126-0.020-0.239-0.062-0.34-0.039-0.102-0.099-0.189-0.176-0.258l-0.001-0.001c-0.062-0.054-0.134-0.098-0.212-0.129l-0.005-0.002c-0.095-0.039-0.205-0.069-0.32-0.085l-0.007-0.001-0.332-0.049c-0.142-0.022-0.252-0.067-0.328-0.135-0.036-0.033-0.065-0.072-0.085-0.117l-0.001-0.002c-0.016-0.044-0.025-0.095-0.025-0.148 0-0.001 0-0.003 0-0.004v0c0-0.131 0.045-0.239 0.135-0.324 0.093-0.087 0.225-0.131 0.398-0.131 0.123 0 0.237 0.016 0.34 0.049 0.107 0.030 0.205 0.089 0.295 0.177l0.283-0.279c-0.112-0.108-0.246-0.194-0.394-0.251l-0.008-0.003c-0.141-0.050-0.304-0.078-0.473-0.078-0.011 0-0.022 0-0.032 0l0.002-0c-0.153 0-0.289 0.020-0.41 0.062s-0.223 0.099-0.307 0.176c-0.082 0.077-0.146 0.168-0.193 0.275-0.044 0.104-0.065 0.218-0.065 0.344 0 0.238 0.071 0.424 0.213 0.558 0.131 0.123 0.315 0.201 0.553 0.234l0.344 0.049c0.088 0.014 0.153 0.029 0.197 0.045s0.084 0.042 0.123 0.078c0.077 0.068 0.115 0.17 0.115 0.303 0 0.142-0.053 0.253-0.16 0.332-0.104 0.077-0.251 0.115-0.443 0.115-0.15 0-0.286-0.019-0.406-0.057-0.134-0.049-0.248-0.125-0.34-0.221l-0-0-0.295 0.291c0.14 0.142 0.291 0.242 0.455 0.3s0.356 0.086 0.578 0.086c0.153 0 0.294-0.019 0.422-0.057s0.239-0.095 0.332-0.168c0.181-0.143 0.296-0.362 0.296-0.609 0-0.008-0-0.016-0-0.024l0 0.001z"></path>
<path d="M18.292 21.888l15.394 2.335v-13.835l-15.723-7.954-9.773-2.027-7.809 6.328v17.080l17.911-1.928zM0.003 24.237v-17.682l8.090-6.555 9.996 2.074 15.977 8.081v14.508l-15.782-2.395-18.28 1.968z"></path>
<path d="M32.335 11.738l-3.154 3.28-0.273-0.262 3.154-3.28 0.273 0.262zM23.609 15.872l2.775 2.145-0.231 0.299-2.775-2.145 0.231-0.3z"></path>
<path d="M28.794 23.844v-19.87h0.378v19.87h-0.378zM26.043 13.004v-12.499h0.378v12.499h-0.378z"></path>
<path d="M26.043 26.619v-14.95h0.378v14.95h-0.378zM32.703 13.562h-2.145v-0.378h2.145v0.378zM7.951 23.15v-22.897h0.378v22.897h-0.378zM17.918 22.141v-19.87h0.378v19.869h-0.378z"></path>
</symbol>
<symbol id="icon-mastercart" viewBox="0 0 32 32">
<path  d="M22.16 6.345c-0.004 0-0.008 0-0.012 0-2.443 0-4.669 0.93-6.344 2.454l0.008-0.007c-1.668-1.517-3.894-2.446-6.337-2.446-0.003 0-0.006 0-0.010 0h-0.060c-5.197 0.034-9.405 4.262-9.405 9.466 0 5.225 4.241 9.465 9.465 9.465 2.441 0 4.666-0.925 6.345-2.446-0.347-0.319-0.663-0.657-0.954-1.017l-0.014-0.018h1.955c-0.303 0.369-0.617 0.7-0.954 1.008l-0.007 0.007h-0.001c-0.008 0.009-0.016 0.014-0.024 0.021 1.668 1.519 3.895 2.449 6.34 2.449 0.005 0 0.009 0 0.014 0h-0.001c5.228-0.003 9.464-4.242 9.463-9.469v-0.005c0.001-5.227-4.238-9.465-9.466-9.463zM14.951 9.77h1.799c0.265 0.321 0.511 0.66 0.735 1.014h-3.21c0.244-0.402 0.467-0.732 0.703-1.052l-0.027 0.039zM13.716 11.778h4.315c0.153 0.328 0.289 0.667 0.408 1.014h-5.234c0.052-0.098 0.235-0.492 0.511-1.014zM3.864 18.224l0.574-3.619-1.295 3.619h-0.694l-0.090-3.619-0.613 3.619h-0.972l0.806-4.8h1.471l0.052 2.945 0.993-2.945h1.595l-0.795 4.8h-1.031zM7.303 18.216l0.033-0.383c-0.016 0.002-0.323 0.464-1.034 0.464-0.372 0-0.973-0.204-0.973-1.087 0-1.123 0.916-1.495 1.787-1.495 0.137 0 0.433 0.025 0.433 0.025s0.033-0.069 0.033-0.254c0-0.305-0.274-0.346-0.65-0.346-0.662 0-1.098 0.176-1.098 0.176l0.146-0.869s0.53-0.222 1.221-0.222c0.357 0 1.384 0.038 1.384 1.215l-0.396 2.775h-0.888zM11.053 16.994c0 1.339-1.298 1.282-1.524 1.282-0.846 0-1.107-0.117-1.131-0.123l0.135-0.882c0.001-0.008 0.425 0.153 0.895 0.153 0.272 0 0.624-0.026 0.624-0.351 0-0.486-1.262-0.37-1.262-1.524 0-1.018 0.756-1.316 1.502-1.316 0.576 0 0.93 0.079 0.93 0.079l-0.127 0.889s-0.547-0.045-0.688-0.045c-0.359 0-0.554 0.078-0.554 0.329-0.001 0.504 1.2 0.257 1.2 1.509zM12.611 17.345c0.089 0 0.191-0.031 0.26-0.031l-0.126 0.856c-0.101 0.028-0.388 0.131-0.756 0.133-0.47 0.004-0.803-0.259-0.803-0.854 0-0.4 0.573-3.693 0.595-3.715h1.008l-0.103 0.589h0.503l-0.129 0.949h-0.534l-0.283 1.748c-0.022 0.139 0.017 0.325 0.368 0.325zM14.828 14.213c1.106 0 1.437 0.81 1.437 1.474 0 0.266-0.133 0.919-0.133 0.919h-2.048s-0.189 0.807 0.893 0.807c0.507 0 1.070-0.248 1.070-0.248l-0.178 0.972s-0.325 0.166-1.065 0.166c-0.801 0-1.741-0.339-1.741-1.763 0.001-1.234 0.75-2.325 1.764-2.325zM17.497 20.823h-3.358c-0.204-0.327-0.395-0.662-0.559-1.014h4.469c-0.19 0.402-0.373 0.734-0.575 1.054l0.024-0.040zM17.271 18.232h-1.034l0.629-3.907h0.938l-0.090 0.566s0.334-0.616 0.786-0.616c0.131 0 0.195 0.013 0.195 0.013-0.134 0.273-0.252 0.523-0.375 1.169-0.7-0.248-0.754 1.106-1.048 2.774zM21.213 18.171s-0.542 0.138-0.882 0.138c-1.203 0-1.814-0.829-1.814-2.087 0-1.896 1.132-2.905 2.295-2.905 0.526 0 1.135 0.247 1.135 0.247l-0.165 1.068s-0.412-0.287-0.925-0.287c-0.686 0-1.301 0.654-1.301 1.843 0 0.586 0.287 1.132 1.002 1.132 0.34 0 0.833-0.247 0.833-0.247l-0.18 1.1zM23.639 18.218l0.034-0.385c-0.016 0.001-0.323 0.462-1.034 0.462-0.372 0-0.973-0.202-0.973-1.086 0-1.123 0.916-1.495 1.787-1.495 0.137 0 0.434 0.025 0.434 0.025s0.034-0.068 0.034-0.253c0-0.305-0.274-0.346-0.65-0.346-0.662 0-1.098 0.176-1.098 0.176l0.146-0.869s0.53-0.222 1.221-0.222c0.357 0 1.384 0.038 1.384 1.215l-0.396 2.776c-0.001 0.002-0.889 0.002-0.889 0.002zM25.733 18.232h-1.034l0.629-3.907h0.939l-0.090 0.566s0.335-0.616 0.786-0.616c0.131 0 0.194 0.013 0.194 0.013-0.133 0.273-0.253 0.523-0.375 1.169-0.701-0.248-0.754 1.106-1.049 2.774zM28.822 18.221l0.044-0.359s-0.334 0.421-0.939 0.421c-0.838 0-1.249-0.809-1.249-1.636 0-1.279 0.769-2.393 1.693-2.393 0.594 0.001 0.974 0.526 0.974 0.526l0.218-1.349 1.010-0.002-0.771 4.792h-0.98zM30.815 18.086c-0.052 0.093-0.151 0.155-0.263 0.155-0.001 0-0.001 0-0.002 0h0c-0.112-0.001-0.21-0.063-0.263-0.153l-0.001-0.001c-0.026-0.044-0.041-0.096-0.041-0.152s0.015-0.109 0.042-0.154l-0.001 0.001c0.054-0.092 0.152-0.153 0.264-0.154h0c0.052 0 0.102 0.014 0.15 0.041 0.094 0.052 0.157 0.151 0.157 0.264 0 0.057-0.016 0.11-0.043 0.155l0.001-0.001zM30.734 20.974c-0.007-0.005-0.012-0.012-0.023-0.016-0.013-0.004-0.028-0.006-0.044-0.006-0.003 0-0.006 0-0.009 0l0-0h-0.061v0.098h0.065c0.031 0 0.051-0.003 0.063-0.014 0.010-0.008 0.016-0.020 0.016-0.034 0-0.001-0-0.001-0-0.002v0c0-0 0-0 0-0 0-0.010-0.003-0.019-0.008-0.027l0 0z"></path>
<path  d="M30.945 20.916c-0.027-0.049-0.066-0.087-0.114-0.113l-0.002-0.001c-0.043-0.025-0.094-0.040-0.149-0.041h-0c-0.055 0-0.107 0.015-0.152 0.041l0.001-0.001c-0.049 0.026-0.088 0.065-0.114 0.112l-0.001 0.001c-0.024 0.043-0.039 0.095-0.039 0.15 0 0.169 0.136 0.306 0.305 0.308h0c0.168-0.001 0.304-0.137 0.304-0.306 0-0.056-0.015-0.108-0.041-0.154l0.001 0.001zM30.757 21.237l-0.029-0.052c-0.015-0.030-0.034-0.056-0.056-0.078l-0-0c-0.011-0.007-0.025-0.012-0.039-0.012-0.001 0-0.002 0-0.002 0h-0.031v0.14h-0.054v-0.33h0.114c0.039 0 0.067 0.003 0.083 0.010 0.018 0.007 0.033 0.016 0.042 0.032 0.009 0.013 0.015 0.030 0.015 0.048 0 0 0 0 0 0.001v-0c-0 0.025-0.010 0.047-0.026 0.063l0-0c-0.018 0.017-0.042 0.029-0.068 0.030h-0c0.011 0.004 0.020 0.010 0.028 0.018v0c0.018 0.019 0.034 0.040 0.048 0.063l0.001 0.002 0.041 0.065h-0.066zM7.198 16.464c-0.739 0-0.888 0.332-0.888 0.609 0 0.142 0.082 0.38 0.394 0.38 0.607 0 0.733-0.795 0.713-0.965-0.029-0.007-0.047-0.023-0.219-0.023zM14.832 15.114c-0.549 0-0.655 0.625-0.655 0.691h1.119c0-0.050 0.105-0.691-0.464-0.691zM28.545 15.223c-0.443 0-0.794 0.515-0.793 1.296 0 0.477 0.17 0.782 0.533 0.782 0.546 0 0.809-0.712 0.809-1.243 0-0.586-0.186-0.835-0.549-0.835zM30.769 17.808c-0.023-0.040-0.055-0.072-0.094-0.094l-0.001-0.001c-0.036-0.022-0.080-0.035-0.127-0.035-0.094 0-0.175 0.052-0.218 0.128l-0.001 0.001c-0.021 0.037-0.034 0.080-0.035 0.127v0c0 0.044 0.012 0.087 0.033 0.127 0.046 0.076 0.127 0.128 0.221 0.131h0c0.044 0 0.087-0.013 0.126-0.035 0.078-0.044 0.129-0.127 0.129-0.221 0-0.047-0.013-0.092-0.036-0.13l0.001 0.001zM30.627 18.103l-0.029-0.051c-0.014-0.030-0.033-0.055-0.055-0.077l-0-0c-0.011-0.008-0.024-0.013-0.039-0.013-0.001 0-0.003 0-0.004 0h-0.030v0.14h-0.055v-0.329h0.114c0.039 0 0.067 0.003 0.084 0.010s0.031 0.017 0.042 0.031l0 0c0.009 0.012 0.015 0.028 0.015 0.045 0 0.001-0 0.002-0 0.003v-0c-0 0.024-0.010 0.047-0.026 0.063v0c-0.017 0.019-0.041 0.027-0.068 0.030 0.013 0.005 0.022 0.011 0.028 0.017 0.018 0.019 0.034 0.040 0.047 0.063l0.001 0.002 0.041 0.065h-0.065zM23.536 16.464c-0.739 0-0.888 0.332-0.888 0.609 0 0.142 0.081 0.38 0.394 0.38 0.607 0 0.732-0.795 0.713-0.965-0.029-0.007-0.048-0.023-0.219-0.023z"></path>
<path  d="M30.605 17.84c-0.006-0.007-0.013-0.013-0.022-0.016l-0-0c-0.015-0.004-0.032-0.007-0.049-0.007-0.002 0-0.003 0-0.005 0h0v0.001h-0.059v0.099h0.065c0.031 0 0.051-0.004 0.063-0.014 0.010-0.009 0.016-0.022 0.016-0.037v0c0-0 0-0.001 0-0.001 0-0.010-0.003-0.019-0.009-0.026l0 0z"></path>
</symbol>
<symbol id="icon-mini-fridge" viewBox="0 0 32 32">
<path  d="M25.066 10.721v-9.034c-0.002-0.931-0.756-1.686-1.687-1.687h-14.834c-0.931 0.001-1.686 0.756-1.688 1.687v9.034c0 0.496 0.215 0.941 0.556 1.248l0.002 0.001c-0.343 0.309-0.558 0.755-0.558 1.25v15.282c0.001 0.932 0.756 1.687 1.688 1.688h0.229v1.343c0 0.242 0.196 0.438 0.438 0.438v0h3.125c0.242 0 0.438-0.196 0.438-0.438v0-1.343h6.375v1.343c0 0.242 0.196 0.438 0.438 0.438 0 0 0 0 0 0h3.125c0.242 0 0.438-0.196 0.438-0.438v0-1.343h0.23c0.931-0.001 1.686-0.756 1.687-1.687v-15.282c-0-0.496-0.215-0.941-0.556-1.249l-0.002-0.001c0.343-0.309 0.557-0.754 0.558-1.25v-0zM11.899 31.096h-2.25v-0.905h2.25v0.905zM22.274 31.096h-2.25v-0.905h2.25v0.905zM24.191 13.221v15.282c-0.001 0.449-0.364 0.812-0.812 0.813h-14.834c-0.449-0.001-0.812-0.364-0.813-0.812v-15.282c0.001-0.449 0.364-0.812 0.813-0.813h14.833c0.448 0.001 0.812 0.364 0.812 0.812v0zM8.545 11.534c-0.449-0.001-0.812-0.364-0.813-0.812v-9.035c0.001-0.449 0.364-0.812 0.813-0.812h14.833c0.448 0.001 0.812 0.364 0.812 0.812v9.034c-0.001 0.448-0.364 0.812-0.812 0.812h-14.833z"></path>
<path  d="M22.165 3.17h-1.625c-0.242 0-0.438 0.196-0.438 0.438v0 5.25c0 0.242 0.196 0.438 0.438 0.438v0h1.625c0.242 0 0.438-0.196 0.438-0.438v0-5.25c0-0.242-0.196-0.438-0.438-0.438v0zM21.727 8.421h-0.75v-4.375h0.75v4.375zM20.539 20.19h1.625c0.241-0 0.437-0.196 0.438-0.437v-5.25c0-0.242-0.196-0.438-0.438-0.438v0h-1.625c-0.242 0-0.438 0.196-0.438 0.438v0 5.25c0 0.242 0.196 0.438 0.438 0.438v0zM20.977 14.939h0.75v4.375h-0.75v-4.375z"></path>
</symbol>
<symbol id="icon-parking" viewBox="0 0 32 32">
<path  d="M16 0c-6.763 0-12.267 5.79-12.267 12.906 0 6.975 11.404 18.452 11.889 18.938 0.097 0.096 0.23 0.156 0.377 0.156s0.281-0.060 0.377-0.156v0c0.485-0.485 11.89-11.963 11.89-18.938 0-7.117-5.503-12.906-12.267-12.906zM16 30.703c-1.994-2.069-11.2-11.938-11.2-17.797 0-6.528 5.025-11.84 11.2-11.84s11.2 5.312 11.2 11.84c0 5.856-9.206 15.728-11.2 17.797z"></path>
<path  d="M16 2.667c-5.293 0-9.6 4.307-9.6 9.6s4.307 9.6 9.6 9.6c5.294 0 9.6-4.306 9.6-9.6s-4.306-9.6-9.6-9.6zM16 20.8c-4.705 0-8.533-3.828-8.533-8.534s3.828-8.533 8.533-8.533c4.706 0 8.534 3.828 8.534 8.533s-3.828 8.534-8.534 8.534zM16 26.134c-0.294 0-0.533 0.239-0.533 0.533v4.8c0.009 0.288 0.244 0.518 0.533 0.518s0.525-0.23 0.533-0.517l0-0.001v-4.8c0-0.294-0.239-0.533-0.534-0.533z"></path>
<path  d="M17.067 8.534h-2.133c-0.294 0-0.534 0.239-0.534 0.533v2.133c0 0.294 0.239 0.534 0.534 0.534h2.133c0.882 0 1.6-0.718 1.6-1.6s-0.718-1.6-1.6-1.6zM17.067 10.666h-1.6v-1.066h1.6c0.283 0.015 0.507 0.248 0.507 0.533s-0.224 0.518-0.506 0.533l-0.001 0z"></path>
<path  d="M17.067 6.4h-4.267c-0.294 0-0.533 0.239-0.533 0.534v10.667c0 0.294 0.239 0.534 0.533 0.534h2.133c0.294 0 0.533-0.239 0.533-0.534v-3.733h1.6c2.059 0 3.733-1.675 3.733-3.733s-1.674-3.733-3.733-3.733zM17.067 12.8h-2.133c-0.294 0-0.534 0.239-0.534 0.534v3.733h-1.066v-9.6h3.733c1.472 0.002 2.665 1.195 2.667 2.667v0c-0.002 1.472-1.195 2.665-2.667 2.666h-0zM31.467 30.933h-2.134c-0.288 0.009-0.518 0.244-0.518 0.533s0.23 0.525 0.517 0.533l0.001 0h2.134c0.288-0.009 0.518-0.244 0.518-0.533s-0.23-0.525-0.517-0.533l-0.001-0zM12.8 30.933h-12.267c-0.288 0.009-0.518 0.244-0.518 0.533s0.23 0.525 0.517 0.533l0.001 0h12.267c0.288-0.009 0.518-0.244 0.518-0.533s-0.23-0.525-0.517-0.533l-0.001-0zM25.6 30.933h-6.4c-0.288 0.009-0.518 0.244-0.518 0.533s0.23 0.525 0.517 0.533l0.001 0h6.4c0.288-0.009 0.518-0.244 0.518-0.533s-0.23-0.525-0.517-0.533l-0.001-0z"></path>
</symbol>
<symbol id="icon-paypal" viewBox="0 0 32 32">
<path  d="M5.669 12.928c-0.11-0.211-0.27-0.383-0.465-0.504l-0.005-0.003c-0.215-0.13-0.467-0.225-0.735-0.273l-0.013-0.002c-0.297-0.051-0.639-0.080-0.988-0.080-0.010 0-0.020 0-0.030 0l-1.798 0.001c-0.197 0.009-0.361 0.144-0.413 0.326l-0.001 0.003-1.21 5.272c-0.044 0.178 0.073 0.328 0.26 0.328h0.862c0.198-0.006 0.363-0.141 0.413-0.324l0.001-0.003 0.295-1.28c0.051-0.186 0.215-0.321 0.412-0.327l0.001-0h0.247c1.054-0.001 1.87-0.216 2.455-0.648 0.59-0.432 0.88-1.002 0.88-1.709 0-0.309-0.051-0.569-0.166-0.776zM3.812 14.65c-0.261 0.191-0.623 0.286-1.090 0.286h-0.211c-0.188 0-0.302-0.148-0.262-0.329l0.259-1.119c0.036-0.179 0.226-0.328 0.41-0.327l0.282-0.002c0.329 0 0.581 0.057 0.749 0.168 0.166 0.109 0.25 0.283 0.248 0.513 0.005 0.35-0.129 0.619-0.388 0.81zM30.227 12.478l-0.054 0.016-0.072 0.010-0.088-0.014-0.045-0.044-0.021-0.069-0.001-0.104v-0.383h0.288v-0.119h-0.288v-0.238h-0.142v0.238h-0.097v0.119h0.097v0.445l0.067 0.221 0.196 0.070 0.082-0.006 0.087-0.018v-0.126h-0.008zM31.563 11.834l-0.206-0.085-0.152 0.031-0.154 0.104-0.090-0.1-0.146-0.034-0.14 0.031-0.132 0.085v-0.093h-0.14v0.838h0.139v-0.626l0.117-0.073 0.117-0.029 0.095 0.017 0.047 0.048 0.021 0.080 0.007 0.104v0.479h0.14v-0.536l-0.003-0.044-0.003-0.041 0.119-0.075 0.118-0.030 0.092 0.017 0.050 0.048 0.018 0.082 0.009 0.102v0.479h0.141v-0.544l-0.066-0.234zM9.823 13.682c-0.325-0.183-0.838-0.275-1.54-0.275-0.347 0-0.693 0.027-1.042 0.081-0.258 0.040-0.283 0.047-0.442 0.082-0.328 0.072-0.379 0.398-0.379 0.398l-0.105 0.433c-0.060 0.277 0.1 0.267 0.166 0.243 0.143-0.043 0.223-0.087 0.515-0.152 0.279-0.063 0.574-0.111 0.807-0.108 0.344 0 0.608 0.036 0.784 0.11 0.173 0.075 0.26 0.205 0.26 0.392l-0.015 0.122-0.124 0.077c-0.489 0.031-0.842 0.075-1.271 0.138-0.419 0.058-0.787 0.161-1.092 0.301-0.328 0.144-0.572 0.338-0.742 0.585-0.164 0.248-0.247 0.548-0.247 0.901 0 0.332 0.119 0.606 0.351 0.818 0.233 0.208 0.54 0.31 0.908 0.31 0.233-0.001 0.413-0.019 0.541-0.050l0.417-0.144 0.353-0.195 0.325-0.215 0.004 0.006-0.033 0.138-0.002 0.006v0.001c-0.035 0.168 0.066 0.306 0.23 0.323l0.003 0.004h0.8l0.011-0.005c0.179-0.024 0.322-0.152 0.37-0.319l0.001-0.003 0.628-2.719 0.033-0.222 0.015-0.208c0.002-0.385-0.164-0.671-0.489-0.853zM8.434 16.738l-0.134 0.177-0.339 0.175c-0.133 0.058-0.287 0.094-0.449 0.097l-0.001 0c-0.212 0-0.378-0.031-0.491-0.094l-0.166-0.323c0-0.176 0.040-0.314 0.126-0.42l0.365-0.248c0.156-0.053 0.347-0.097 0.568-0.128 0.197-0.025 0.586-0.069 0.637-0.070l0.060 0.105c-0.012 0.060-0.122 0.521-0.175 0.73zM25.471 13.685c-0.327-0.183-0.84-0.275-1.539-0.275-0.347 0-0.693 0.027-1.042 0.083-0.259 0.038-0.284 0.046-0.444 0.080-0.327 0.071-0.378 0.399-0.378 0.399l-0.105 0.433c-0.059 0.277 0.097 0.264 0.169 0.243 0.144-0.043 0.221-0.085 0.511-0.152 0.278-0.063 0.575-0.109 0.809-0.108 0.343 0 0.607 0.038 0.782 0.111 0.174 0.075 0.26 0.206 0.26 0.391l-0.013 0.121-0.123 0.078c-0.494 0.030-0.848 0.075-1.272 0.137-0.418 0.058-0.787 0.16-1.093 0.301-0.327 0.144-0.573 0.339-0.742 0.585-0.166 0.248-0.247 0.548-0.247 0.897 0 0.334 0.118 0.609 0.353 0.819 0.234 0.208 0.538 0.312 0.906 0.312 0.232-0.003 0.412-0.018 0.54-0.050l0.416-0.142 0.356-0.196 0.323-0.217 0.006 0.007-0.029 0.139-0.003 0.003 0.001 0.003c-0.039 0.168 0.063 0.307 0.229 0.323l0.001 0.003h0.799l0.013-0.004c0.178-0.025 0.32-0.154 0.366-0.322l0.001-0.003 0.63-2.715 0.033-0.223 0.018-0.208c0.001-0.384-0.164-0.668-0.492-0.851zM24.085 16.742l-0.14 0.179-0.336 0.174c-0.132 0.058-0.286 0.093-0.447 0.097l-0.002 0c-0.219 0-0.381-0.031-0.49-0.094l-0.168-0.322c0-0.176 0.041-0.313 0.123-0.422 0.083-0.102 0.211-0.186 0.369-0.248 0.162-0.054 0.353-0.099 0.551-0.126l0.016-0.002c0.196-0.024 0.584-0.070 0.634-0.071l0.061 0.105c-0.009 0.060-0.12 0.52-0.171 0.729zM21.314 12.947c-0.113-0.211-0.274-0.383-0.469-0.506l-0.006-0.003c-0.215-0.132-0.467-0.228-0.736-0.273l-0.012-0.002c-0.29-0.050-0.625-0.079-0.966-0.079-0.017 0-0.034 0-0.050 0l0.003-0-1.801 0.001c-0.196 0.009-0.359 0.143-0.41 0.324l-0.001 0.003-1.212 5.274c-0.044 0.179 0.077 0.327 0.26 0.327l0.863-0.001c0.197-0.007 0.361-0.142 0.413-0.323l0.001-0.003 0.292-1.281c0.053-0.185 0.217-0.319 0.413-0.327l0.001-0h0.247c1.055 0 1.872-0.217 2.461-0.647 0.582-0.435 0.876-1.004 0.876-1.711-0.003-0.308-0.056-0.568-0.166-0.774zM19.456 14.672c-0.26 0.187-0.622 0.282-1.087 0.282h-0.215c-0.005 0-0.010 0-0.016 0-0.142 0-0.258-0.115-0.258-0.258 0-0.025 0.004-0.050 0.010-0.073l-0 0.002 0.261-1.117c0.050-0.186 0.214-0.321 0.411-0.327h0.001l0.279-0.002c0.331 0.002 0.58 0.056 0.749 0.167s0.248 0.284 0.25 0.513c0.002 0.35-0.128 0.62-0.387 0.812zM28.701 12.455c0.040-0.18-0.073-0.326-0.259-0.324h-0.772c-0.158 0-0.301 0.117-0.37 0.262l-0.043 0.066-0.039 0.171-1.079 4.903-0.035 0.151 0.001 0.004c-0.036 0.161 0.063 0.283 0.216 0.306l0.013 0.018h0.801c0.157 0 0.304-0.119 0.371-0.266l0.041-0.063 1.153-5.227-0.003-0.001zM15.678 13.473c-0.204 0.002-1.033 0-1.033 0-0.186 0-0.424 0.15-0.542 0.329 0 0-1.234 2.117-1.353 2.33l-0.143-0.002-0.384-2.313c-0.043-0.182-0.233-0.338-0.469-0.338l-0.772 0.001c-0.186 0-0.3 0.148-0.258 0.329 0 0 0.586 3.335 0.703 4.12 0.055 0.433-0.007 0.51-0.007 0.51l-0.763 1.329c-0.113 0.181-0.052 0.328 0.133 0.328l0.892-0.001c0.186 0 0.43-0.146 0.54-0.328l3.432-5.805c0 0.001 0.33-0.496 0.023-0.489z"></path>
</symbol>
<symbol id="icon-right" viewBox="0 0 64 32">
<path  d="M1.167 17.284h59.784c0.644 0 1.167-0.576 1.167-1.284s-0.523-1.284-1.167-1.284h-59.784c-0.644 0-1.167 0.576-1.167 1.284s0.523 1.284 1.167 1.284z"></path>
<path  d="M47.349 30.118c0.001 0 0.001 0 0.002 0 0.155 0 0.296-0.060 0.401-0.158l-0 0 14.263-13.579c0.102-0.097 0.166-0.233 0.168-0.384v-0c-0.002-0.151-0.066-0.286-0.167-0.382l-0-0-14.264-13.572c-0.105-0.098-0.246-0.158-0.402-0.158s-0.297 0.060-0.402 0.159l0-0c-0.102 0.096-0.166 0.232-0.166 0.382s0.064 0.286 0.166 0.382l0 0 13.862 13.19-13.862 13.195c-0.103 0.096-0.167 0.232-0.167 0.383s0.064 0.287 0.166 0.383l0 0c0.104 0.099 0.246 0.16 0.401 0.16 0.001 0 0.001 0 0.002 0h-0z"></path>
</symbol>
<symbol id="icon-shower" viewBox="0 0 32 32">
<path  d="M26.933 0c-0.884 0-1.6 0.716-1.6 1.6v0 0.534h-11.733c-1.472 0.002-2.665 1.195-2.666 2.666v2.667h-1.067c-0.884 0-1.6 0.716-1.6 1.6v0 1.838c-2.255 1.407-3.733 3.874-3.733 6.686 0 0.003 0 0.007 0 0.010v-0 0.631c-0.625 0.226-1.064 0.812-1.067 1.502v1.067c0 0.294 0.239 0.534 0.533 0.534h17.067c0.294 0 0.533-0.239 0.533-0.534v-1.067c-0.003-0.69-0.442-1.277-1.055-1.499l-0.011-0.004v-0.631c0-0.004 0-0.008 0-0.012 0-2.207-0.897-4.204-2.347-5.647l-0-0c-0.406-0.392-0.861-0.738-1.353-1.027l-0.034-0.018v-1.829c0-0.884-0.716-1.6-1.6-1.6v0h-1.066v-1.6c0-0.294 0.239-0.533 0.533-0.533h10.667v1.067c0 0.884 0.716 1.6 1.6 1.6v0h1.6v-8h-1.6zM20.534 19.733v0.533h-16v-0.533c0-0.295 0.239-0.534 0.534-0.534h14.933c0.295 0 0.534 0.239 0.534 0.534zM17.435 12.697c1.255 1.251 2.032 2.981 2.032 4.892 0 0.004 0 0.008 0 0.012v-0.001 0.534h-13.867v-0.534c0-0.001 0-0.003 0-0.005 0-2.483 1.329-4.655 3.315-5.845l0.031-0.017h7.179c0.499 0.277 0.929 0.597 1.313 0.965l-0.002-0.002zM15.2 8.534c0.295 0 0.534 0.239 0.534 0.533v1.6h-6.4v-1.6c0-0.294 0.239-0.533 0.533-0.533h5.333zM25.334 4.266h-10.667c-0.884 0-1.6 0.716-1.6 1.6v0 1.6h-1.066v-2.667c0-0.884 0.716-1.6 1.6-1.6v0h11.733v1.067zM27.466 6.934h-0.533c-0.295 0-0.534-0.239-0.534-0.534v-4.8c0-0.294 0.239-0.534 0.534-0.534h0.533v5.867zM12.534 22.4c-0.294 0-0.534 0.239-0.534 0.534v2.133c0 0.295 0.239 0.534 0.534 0.534s0.534-0.239 0.534-0.534v0-2.133c0-0.295-0.239-0.534-0.534-0.534zM12.534 26.666c-0.294 0-0.534 0.239-0.534 0.534v2.134c0 0.295 0.239 0.534 0.534 0.534s0.534-0.239 0.534-0.534v0-2.134c0-0.294-0.239-0.534-0.534-0.534zM18.933 24.534c-0.294 0-0.534 0.239-0.534 0.533v2.134c0 0.295 0.239 0.534 0.534 0.534s0.534-0.239 0.534-0.534v0-2.134c0-0.294-0.239-0.533-0.534-0.533zM14.667 24.534c-0.295 0-0.534 0.239-0.534 0.533v2.134c0.009 0.288 0.244 0.518 0.533 0.518s0.525-0.23 0.533-0.517l0-0.001v-2.134c0-0.294-0.239-0.533-0.533-0.533zM10.4 24.534c-0.294 0-0.533 0.239-0.533 0.533v2.134c0.009 0.288 0.244 0.518 0.533 0.518s0.525-0.23 0.533-0.517l0-0.001v-2.134c0-0.294-0.239-0.533-0.534-0.533zM6.133 24.534c-0.294 0-0.534 0.239-0.534 0.533v2.134c0 0.295 0.239 0.534 0.534 0.534s0.534-0.239 0.534-0.534v0-2.134c0-0.294-0.239-0.533-0.534-0.533zM8.267 22.4c-0.295 0-0.534 0.239-0.534 0.534v2.133c0.009 0.288 0.244 0.518 0.533 0.518s0.525-0.23 0.533-0.517l0-0.001v-2.133c0-0.295-0.239-0.534-0.533-0.534zM16.8 22.4c-0.294 0-0.533 0.239-0.533 0.534v2.133c0.009 0.288 0.244 0.518 0.533 0.518s0.525-0.23 0.533-0.517l0-0.001v-2.133c0-0.295-0.239-0.534-0.534-0.534zM16.8 26.666c-0.294 0-0.533 0.239-0.533 0.534v2.134c0.009 0.288 0.244 0.518 0.533 0.518s0.525-0.23 0.533-0.517l0-0.001v-2.134c0-0.294-0.239-0.534-0.534-0.534zM8.267 26.666c-0.295 0-0.534 0.239-0.534 0.534v2.134c0.009 0.288 0.244 0.518 0.533 0.518s0.525-0.23 0.533-0.517l0-0.001v-2.134c0-0.294-0.239-0.534-0.533-0.534zM10.4 28.8c-0.294 0-0.533 0.239-0.533 0.534v2.133c0.009 0.288 0.244 0.518 0.533 0.518s0.525-0.23 0.533-0.517l0-0.001v-2.133c0-0.295-0.239-0.534-0.534-0.534zM14.667 28.8c-0.295 0-0.534 0.239-0.534 0.534v2.133c0.009 0.288 0.244 0.518 0.533 0.518s0.525-0.23 0.533-0.517l0-0.001v-2.133c0-0.295-0.239-0.534-0.533-0.534z"></path>
</symbol>
<symbol id="icon-towels" viewBox="0 0 32 32">
<path  d="M32 9.066c-0.002-2.061-1.672-3.731-3.733-3.733h-16c-0.004-0-0.009-0-0.014-0-0.34 0-0.669 0.048-0.98 0.139l0.025-0.006c-0.199 0.048-5.467 2.034-8.59 3.214h-0.005c-0.632 0.18-1.174 0.508-1.606 0.944l-0 0c-0.678 0.669-1.097 1.598-1.097 2.626 0 0.006 0 0.012 0 0.018v-0.001c0.001 1.353 0.722 2.537 1.801 3.191l0.017 0.009c-1.095 0.663-1.816 1.847-1.818 3.2v0c0.002 1.353 0.724 2.538 1.804 3.191l0.017 0.009c-1.097 0.663-1.82 1.849-1.82 3.204 0 2.060 1.67 3.73 3.73 3.73 0.001 0 0.002 0 0.003 0h16c0.58-0.001 1.128-0.134 1.616-0.373l-0.022 0.010c0.002 0 0.004 0 0.006 0s0.004-0 0.006-0h-0l8.581-3.223c1.242-0.622 2.079-1.884 2.079-3.341 0-1.355-0.723-2.54-1.804-3.192l-0.017-0.009c0.276-0.162 0.514-0.349 0.724-0.563l0.001-0.001c0.678-0.669 1.098-1.599 1.098-2.626 0-0.005 0-0.010-0-0.015v0.001c-0.005-1.351-0.725-2.533-1.802-3.187l-0.017-0.009c0.275-0.162 0.512-0.348 0.722-0.562l0.001-0.001c0.677-0.669 1.096-1.598 1.096-2.625 0-0.006 0-0.012-0-0.018v0.001zM11.592 6.491c0.219-0.061 0.447-0.092 0.675-0.091h16c1.472 0.002 2.665 1.195 2.666 2.667v0c0 0.004 0 0.008 0 0.012 0 0.732-0.299 1.395-0.782 1.872l-0 0c-0.181 0.188-0.393 0.345-0.627 0.462-0.029 0.016-0.053 0.030-0.081 0.044-0.719 0.267-1.986 0.742-3.949 1.479l-2.37 0.89c0.216-0.458 0.343-0.995 0.343-1.562 0-2.060-1.67-3.731-3.731-3.731-0.001 0-0.002 0-0.003 0h-13.615c2.656-1 5.257-1.973 5.474-2.042zM1.067 12.267c-0-0.003-0-0.008-0-0.012 0-0.734 0.3-1.398 0.785-1.875l0-0c0.314-0.318 0.709-0.555 1.152-0.676l0.018-0.004c0.014-0.005 0.029-0.009 0.045-0.015 0.197-0.054 0.424-0.085 0.657-0.085 0.003 0 0.006 0 0.010 0h16c1.472 0.002 2.665 1.195 2.666 2.666v0c-0.004 1.026-0.583 1.916-1.431 2.365l-0.015 0.007c-0.019 0.007-0.034 0.014-0.049 0.021l0.003-0.001c-0.365 0.183-0.767 0.277-1.175 0.275h-16c-1.472-0.002-2.665-1.195-2.667-2.666v-0zM1.067 18.666c0.003-1.472 1.195-2.664 2.666-2.666h16c1.472 0.002 2.665 1.195 2.666 2.666v0c-0.004 1.026-0.583 1.916-1.431 2.365l-0.015 0.007c-0.019 0.007-0.034 0.014-0.049 0.021l0.003-0.001c-0.365 0.183-0.767 0.277-1.175 0.275h-16c-1.472-0.002-2.665-1.195-2.667-2.666v-0zM3.733 27.733c-1.473 0-2.667-1.194-2.667-2.666s1.194-2.666 2.667-2.666h16c1.473 0 2.666 1.194 2.666 2.666s-1.194 2.666-2.666 2.666h-16zM30.933 21.866c0 0.004 0 0.008 0 0.012 0 0.732-0.299 1.395-0.782 1.872l-0 0c-0.192 0.194-0.412 0.358-0.654 0.485l-6.378 2.392c0.219-0.459 0.347-0.998 0.347-1.567 0-1.33-0.699-2.497-1.75-3.153l-0.016-0.009 7.040-2.641c1.251 0.229 2.187 1.308 2.192 2.607v0.001zM30.933 15.466c0 0.004 0 0.008 0 0.012 0 0.733-0.299 1.395-0.782 1.872l-0 0c-0.181 0.188-0.393 0.345-0.627 0.462l-0.082 0.044-6.319 2.37c0.217-0.458 0.343-0.995 0.343-1.561 0-1.331-0.699-2.499-1.75-3.156l-0.016-0.009 4.166-1.565c1.217-0.457 2.162-0.812 2.88-1.080 1.248 0.235 2.181 1.314 2.186 2.612v0.001z"></path>
<path  d="M20.8 12.267c0-0.294-0.239-0.534-0.533-0.534h-17.067c-0.295 0-0.534 0.239-0.534 0.534s0.239 0.534 0.534 0.534v0h17.067c0.294 0 0.534-0.239 0.534-0.534zM20.8 18.666c0-0.294-0.239-0.534-0.533-0.534h-17.067c-0.295 0-0.534 0.239-0.534 0.534s0.239 0.534 0.534 0.534v0h17.067c0.294 0 0.534-0.239 0.534-0.534zM20.267 24.533h-17.067c-0.295 0-0.534 0.239-0.534 0.534s0.239 0.534 0.534 0.534v0h17.067c0.295 0 0.534-0.239 0.534-0.534s-0.239-0.534-0.534-0.534v0zM5.333 1.067c-0.294 0-0.534 0.239-0.534 0.534v1.067c0 0.295 0.239 0.534 0.534 0.534s0.534-0.239 0.534-0.534v-1.067c0-0.294-0.239-0.534-0.534-0.534zM4.8 5.867c0 0.295 0.239 0.534 0.534 0.534s0.534-0.239 0.534-0.534v-1.066c0-0.295-0.239-0.534-0.534-0.534s-0.534 0.239-0.534 0.534v0 1.066zM4.267 3.2h-1.067c-0.005-0-0.010-0-0.016-0-0.295 0-0.534 0.239-0.534 0.534s0.239 0.534 0.534 0.534c0.006 0 0.011-0 0.016-0l-0.001 0h1.067c0.288-0.009 0.518-0.244 0.518-0.533s-0.23-0.525-0.517-0.533l-0.001-0zM6.4 4.266h1.067c0.288-0.009 0.518-0.244 0.518-0.533s-0.23-0.525-0.517-0.533l-0.001-0h-1.067c-0.005-0-0.010-0-0.016-0-0.295 0-0.534 0.239-0.534 0.534s0.239 0.534 0.534 0.534c0.005 0 0.011-0 0.016-0l-0.001 0zM31.044 29.223c-0.096-0.092-0.226-0.148-0.369-0.148-0.295 0-0.534 0.239-0.534 0.534 0 0.143 0.056 0.273 0.148 0.369l0.8 0.8c0.096 0.092 0.226 0.148 0.369 0.148 0.295 0 0.534-0.239 0.534-0.534 0-0.143-0.056-0.273-0.148-0.369l-0.8-0.8zM28.69 28.377c0.096 0.092 0.226 0.148 0.369 0.148 0.295 0 0.534-0.239 0.534-0.534 0-0.143-0.056-0.273-0.148-0.369l-0.8-0.8c-0.096-0.092-0.226-0.148-0.369-0.148-0.295 0-0.534 0.239-0.534 0.534 0 0.143 0.056 0.273 0.148 0.369l0.8 0.8zM27.89 30.777c0.096 0.097 0.23 0.156 0.377 0.156s0.281-0.060 0.377-0.156v0l0.8-0.8c0.092-0.096 0.148-0.226 0.148-0.369 0-0.295-0.239-0.534-0.534-0.534-0.143 0-0.273 0.056-0.369 0.148l-0.8 0.8c-0.097 0.096-0.156 0.23-0.156 0.377s0.060 0.281 0.156 0.377v0zM31.090 26.823l-0.8 0.8c-0.101 0.097-0.165 0.234-0.165 0.385 0 0.295 0.239 0.534 0.534 0.534 0.151 0 0.288-0.063 0.385-0.164l0.8-0.8c0.092-0.096 0.148-0.226 0.148-0.369 0-0.295-0.239-0.534-0.534-0.534-0.143 0-0.273 0.056-0.369 0.148l0-0z"></path>
</symbol>
<symbol id="icon-twitt" viewBox="0 0 39 32">
<path  d="M37.415 3.591c-1.281 0.584-2.768 1.008-4.327 1.198l-0.074 0.007c1.584-0.959 2.775-2.431 3.353-4.182l0.016-0.054c-1.4 0.845-3.030 1.49-4.766 1.841l-0.098 0.017c-1.402-1.496-3.39-2.429-5.596-2.429-4.231 0-7.66 3.43-7.66 7.66 0 0.623 0.074 1.228 0.214 1.807l-0.011-0.052c-6.381-0.329-11.993-3.361-15.756-7.965l-0.031-0.039c-0.654 1.104-1.041 2.434-1.041 3.855 0 2.646 1.342 4.978 3.381 6.354l0.027 0.017c-1.28-0.040-2.47-0.391-3.508-0.978l0.038 0.020v0.098c0 3.694 2.615 6.777 6.094 7.501l0.050 0.009c-0.603 0.171-1.296 0.27-2.011 0.27-0.512 0-1.011-0.050-1.495-0.146l0.049 0.008c1.007 3.067 3.817 5.255 7.146 5.321l0.008 0c-2.585 2.044-5.892 3.278-9.488 3.278-0.008 0-0.016 0-0.025-0h0.001c-0.619 0-1.23-0.036-1.828-0.107 3.311 2.157 7.363 3.44 11.714 3.44 0.009 0 0.018 0 0.027-0h-0.001c14.087 0 21.792-11.671 21.792-21.794 0-0.331-0.007-0.661-0.021-0.99 1.506-1.096 2.774-2.409 3.787-3.909l0.035-0.055z"></path>
</symbol>
<symbol id="icon-united-kingdom" viewBox="0 0 32 32">
<path fill="#f0f0f0" style="fill: var(--color4, #f0f0f0)" d="M32 5.334h-32v21.332h32v-21.332z"></path>
<path fill="#d80027" style="fill: var(--color3, #d80027)" d="M18.001 5.334h-4.001v8.666h-13.999v4.001h14.001v8.667h3.999v-8.667h14.001v-4h-14.001v-8.668z"></path>
<path fill="#0052b4" style="fill: var(--color8, #0052b4)" d="M24.612 19.709l7.388 4.105v-4.105h-7.388zM19.478 19.709l12.522 6.957v-1.967l-8.98-4.989h-3.542zM28.664 26.666l-9.187-5.103v5.103h9.187z"></path>
<path fill="#f0f0f0" style="fill: var(--color4, #f0f0f0)" d="M19.478 19.709l12.522 6.957v-1.967l-8.98-4.989h-3.542z"></path>
<path fill="#d80027" style="fill: var(--color3, #d80027)" d="M19.478 19.709l12.522 6.957v-1.967l-8.98-4.989h-3.542z"></path>
<path fill="#0052b4" style="fill: var(--color8, #0052b4)" d="M5.646 19.709l-5.646 3.136v-3.136h5.646zM12.522 20.595v6.071h-10.929l10.929-6.072z"></path>
<path fill="#d80027" style="fill: var(--color3, #d80027)" d="M8.98 19.709l-8.98 4.989v1.967l12.522-6.957h-3.542z"></path>
<path fill="#0052b4" style="fill: var(--color8, #0052b4)" d="M7.388 12.289l-7.388-4.104v4.102h7.388zM12.522 12.289l-12.522-6.957v1.967l8.98 4.989h3.542zM3.336 5.334l9.187 5.103v-5.103h-9.187z"></path>
<path fill="#f0f0f0" style="fill: var(--color4, #f0f0f0)" d="M12.522 12.289l-12.522-6.957v1.967l8.98 4.989h3.542z"></path>
<path fill="#d80027" style="fill: var(--color3, #d80027)" d="M12.522 12.289l-12.522-6.957v1.967l8.98 4.989h3.542z"></path>
<path fill="#0052b4" style="fill: var(--color8, #0052b4)" d="M26.354 12.289l5.646-3.136v3.135h-5.646zM19.478 11.405v-6.072h10.929l-10.929 6.072z"></path>
<path fill="#d80027" style="fill: var(--color3, #d80027)" d="M23.020 12.289l8.98-4.989v-1.967l-12.522 6.957h3.542z"></path>
</symbol>
<symbol id="icon-visa" viewBox="0 0 32 32">
<path  d="M12.769 11.2l-1.621 9.51h2.592l1.622-9.51h-2.593zM8.975 11.21l-2.539 6.486-0.271-0.979c-0.501-1.18-1.922-2.875-3.591-3.943l2.321 7.931 2.743-0.005 4.082-9.493-2.746 0.002z"></path>
<path  d="M5.181 11.891c-0.151-0.579-0.587-0.752-1.129-0.773h-4.019l-0.033 0.189c3.127 0.759 5.197 2.587 6.055 4.785l-0.874-4.201zM20.615 13.023c0.032-0.001 0.069-0.001 0.107-0.001 0.662 0 1.292 0.134 1.865 0.377l-0.031-0.012 0.234 0.11 0.351-2.061c-0.513-0.193-1.318-0.399-2.322-0.399-2.561 0-4.367 1.29-4.381 3.139-0.017 1.366 1.286 2.129 2.27 2.584 1.010 0.467 1.349 0.763 1.344 1.18-0.008 0.637-0.805 0.929-1.55 0.929-1.038 0-1.589-0.143-2.441-0.498l-0.334-0.152-0.365 2.129c0.607 0.266 1.726 0.495 2.888 0.507 2.725 0 4.495-1.275 4.514-3.25 0.011-1.081-0.68-1.905-2.178-2.582-0.907-0.441-1.461-0.735-1.456-1.18 0-0.395 0.471-0.818 1.485-0.818zM29.792 11.21h-2.003c-0.622 0-1.085 0.169-1.358 0.789l-3.849 8.716h2.722s0.444-1.172 0.545-1.429l3.319 0.004c0.077 0.332 0.316 1.425 0.316 1.425h2.405l-2.097-9.505zM26.595 17.34c0.213-0.547 1.033-2.658 1.033-2.658-0.014 0.026 0.211-0.55 0.345-0.908l0.175 0.82 0.601 2.746h-2.153z"></path>
</symbol>
<symbol id="icon-wifi-parking" viewBox="0 0 32 32">
<path  d="M22.199 18.734c-1.659-1.597-3.849-2.477-6.167-2.477s-4.509 0.88-6.168 2.479c-0.302 0.291-0.581 0.6-0.837 0.927l-0.015 0.019c-0.608 0.781-0.535 1.901 0.169 2.608l0.004 0.004c0.356 0.358 0.848 0.579 1.392 0.579 0.001 0 0.003 0 0.004 0h-0c0.001 0 0.002 0 0.003 0 0.639 0 1.208-0.3 1.574-0.766l0.003-0.004c0.121-0.154 0.252-0.302 0.392-0.441 0.885-0.888 2.11-1.438 3.463-1.438 0.006 0 0.012 0 0.018 0h-0.001c1.317 0 2.553 0.511 3.48 1.438 0.139 0.139 0.27 0.288 0.391 0.442 0.369 0.471 0.938 0.771 1.577 0.771 0.001 0 0.002 0 0.003 0h-0c0.001 0 0.003 0 0.005 0 0.546 0 1.040-0.223 1.395-0.583l0-0c0.704-0.707 0.776-1.828 0.168-2.608-0.272-0.347-0.551-0.656-0.85-0.945l-0.003-0.003zM22.215 21.629l-0.003 0.003c-0.196 0.194-0.455 0.302-0.73 0.302-0.341-0-0.645-0.161-0.839-0.41l-0.002-0.002c-0.144-0.183-0.301-0.36-0.466-0.525-1.054-1.058-2.512-1.713-4.123-1.713-0.007 0-0.014 0-0.021 0h0.001c-1.568 0-3.040 0.608-4.144 1.713-0.165 0.166-0.322 0.342-0.466 0.525-0.197 0.252-0.5 0.412-0.841 0.412v0c-0.001 0-0.001 0-0.002 0-0.286 0-0.544-0.116-0.73-0.304l-0-0c-0.373-0.373-0.413-0.962-0.095-1.371 0.243-0.31 0.493-0.587 0.761-0.845l0.002-0.002c1.482-1.429 3.442-2.215 5.516-2.215s4.033 0.786 5.515 2.215c0.274 0.264 0.531 0.549 0.763 0.848 0.319 0.409 0.277 0.998-0.095 1.37z"></path>
<path  d="M16.032 22.312c-0.002 0-0.005 0-0.008 0-0.779 0-1.483 0.317-1.993 0.828l-0 0c-0.512 0.509-0.829 1.214-0.829 1.993 0 0.003 0 0.005 0 0.008v-0c0 0.756 0.294 1.466 0.829 2 0.509 0.512 1.214 0.828 1.993 0.828 0.003 0 0.005 0 0.008 0h-0c0.002 0 0.005 0 0.008 0 0.779 0 1.483-0.317 1.992-0.828l0-0c0.511-0.512 0.827-1.219 0.827-2s-0.316-1.488-0.827-2l0 0c-0.509-0.512-1.214-0.828-1.992-0.828-0.003 0-0.005 0-0.008 0h0zM17.367 26.476c-0.34 0.342-0.811 0.554-1.332 0.554-0.001 0-0.003 0-0.004 0h0c-0.002 0-0.003 0-0.005 0-0.52 0-0.991-0.212-1.331-0.554l-0-0c-0.342-0.34-0.553-0.811-0.553-1.331 0-0.002 0-0.004 0-0.006v0c0-0.505 0.197-0.979 0.553-1.336 0.34-0.342 0.811-0.554 1.331-0.554 0.002 0 0.004 0 0.006 0h-0c0.505 0 0.979 0.197 1.336 0.553 0.342 0.342 0.553 0.815 0.553 1.336s-0.211 0.994-0.553 1.336l0-0zM31.544 10.956c-0.21-0.229-0.43-0.459-0.651-0.681-3.056-3.055-6.903-5.073-11.122-5.835-1.127-0.215-2.424-0.339-3.749-0.339-3.042 0-5.933 0.649-8.54 1.817l0.133-0.053c-0.168 0.074-0.283 0.239-0.283 0.431 0 0.259 0.21 0.47 0.47 0.47 0.069 0 0.135-0.015 0.194-0.042l-0.003 0.001c7.611-3.335 16.341-1.681 22.238 4.215 0.213 0.212 0.422 0.431 0.623 0.65 0.168 0.184 0.271 0.43 0.271 0.7 0 0.289-0.118 0.551-0.309 0.739l-0 0c-0.188 0.19-0.45 0.308-0.738 0.308-0.010 0-0.019-0-0.029-0l0.001 0c-0.294-0.005-0.556-0.133-0.74-0.334l-0.001-0.001c-0.18-0.197-0.367-0.393-0.557-0.582-3.389-3.39-7.906-5.256-12.719-5.256h-0.001c-4.814 0-9.33 1.867-12.72 5.258-0.189 0.19-0.376 0.385-0.555 0.581-0.192 0.21-0.455 0.329-0.741 0.335-0.008 0-0.018 0-0.028 0-0.288 0-0.549-0.118-0.737-0.307l-0-0c-0.191-0.189-0.309-0.45-0.309-0.74 0-0.27 0.103-0.516 0.272-0.701l-0.001 0.001c0.2-0.219 0.409-0.438 0.621-0.649 1.331-1.334 2.847-2.482 4.506-3.403l0.103-0.053c0.147-0.081 0.245-0.235 0.245-0.412 0-0.259-0.21-0.47-0.47-0.47-0.082 0-0.16 0.021-0.227 0.059l0.002-0.001c-2.115 1.169-3.921 2.599-5.459 4.279l-0.014 0.016c-0.321 0.35-0.518 0.819-0.518 1.334 0 0.549 0.224 1.046 0.585 1.404l0 0c0.357 0.36 0.853 0.583 1.4 0.583 0.018 0 0.036-0 0.053-0.001l-0.003 0c0.56-0.010 1.061-0.254 1.411-0.638l0.001-0.002c0.169-0.185 0.346-0.37 0.526-0.55 3.212-3.213 7.493-4.982 12.056-4.983h0.001c4.561 0 8.843 1.769 12.055 4.981 0.18 0.18 0.358 0.366 0.528 0.552 0.351 0.386 0.853 0.63 1.411 0.64l0.002 0c0.012 0 0.026 0 0.041 0 0.55 0 1.049-0.223 1.41-0.583l-0 0c0.361-0.358 0.585-0.855 0.585-1.404 0-0.515-0.197-0.984-0.52-1.336l0.001 0.001z"></path>
<path  d="M26.345 14.309c-2.465-2.348-5.741-3.863-9.367-4.085l-0.042-0.002c-0.008-0.001-0.018-0.001-0.028-0.001-0.259 0-0.47 0.21-0.47 0.47 0 0.25 0.195 0.454 0.441 0.469l0.001 0c3.87 0.236 7.285 2.012 9.671 4.716l0.013 0.015c0.162 0.184 0.261 0.427 0.261 0.693 0 0.289-0.117 0.55-0.305 0.74l0-0c-0.187 0.189-0.447 0.306-0.734 0.306-0.013 0-0.026-0-0.040-0.001l0.002 0c-0.302-0.009-0.572-0.145-0.756-0.357l-0.001-0.001c-0.223-0.252-0.443-0.483-0.672-0.705l-0.003-0.003c-2.226-2.151-5.168-3.336-8.283-3.336h-0c-3.115 0-6.057 1.185-8.283 3.336-0.233 0.225-0.454 0.456-0.665 0.696l-0.011 0.013c-0.186 0.213-0.455 0.349-0.756 0.358l-0.002 0c-0.009 0-0.020 0-0.031 0-0.578 0-1.046-0.468-1.046-1.046 0-0.263 0.097-0.504 0.257-0.687l-0.001 0.001c2.399-2.724 5.817-4.503 9.652-4.735l0.039-0.002c0.237-0.026 0.42-0.225 0.42-0.467 0-0.26-0.21-0.47-0.47-0.47-0.002 0-0.005 0-0.007 0h0c-4.134 0.251-7.78 2.148-10.326 5.038l-0.014 0.016c-0.687 0.782-0.646 1.973 0.091 2.711 0.356 0.359 0.849 0.581 1.394 0.581 0.025 0 0.050-0 0.075-0.001l-0.004 0c0.571-0.020 1.079-0.277 1.43-0.674l0.002-0.002c0.205-0.233 0.409-0.446 0.621-0.651l0.003-0.003c4.208-4.066 11.054-4.066 15.262 0 0.216 0.209 0.426 0.429 0.623 0.654 0.354 0.4 0.861 0.657 1.429 0.676l0.003 0c0.021 0.001 0.046 0.001 0.072 0.001 0.545 0 1.038-0.222 1.394-0.581l0-0c0.358-0.36 0.58-0.856 0.58-1.405 0-0.504-0.187-0.965-0.496-1.316l0.002 0.002c-0.302-0.342-0.604-0.656-0.918-0.956l-0.006-0.006z"></path>
</symbol>
</defs>
</svg>
